LondrinaBook_ik.ufo
<glyph name="parenleft" format="1">
  <advance width="314"/>
  <unicode hex="0028"/>
  <outline>
    <contour>
      <point x="108" y="41" type="curve" smooth="yes"/>
      <point x="47" y="86"/>
      <point x="35" y="160"/>
      <point x="32" y="203" type="curve"/>
      <point x="35" y="274"/>
      <point x="38" y="352"/>
      <point x="38" y="420" type="curve" smooth="yes"/>
      <point x="38" y="444" type="line"/>
      <point x="41" y="502"/>
      <point x="30" y="568"/>
      <point x="62" y="621" type="curve"/>
      <point x="94" y="684"/>
      <point x="152" y="710"/>
      <point x="212" y="711" type="curve" smooth="yes"/>
      <point x="235" y="710"/>
      <point x="262" y="707"/>
      <point x="285" y="705" type="curve"/>
      <point x="286" y="704" type="line"/>
      <point x="290" y="673"/>
      <point x="287" y="645"/>
      <point x="285" y="622" type="curve"/>
      <point x="238" y="608"/>
      <point x="151" y="606"/>
      <point x="141" y="517" type="curve"/>
      <point x="136" y="467"/>
      <point x="133" y="422"/>
      <point x="130" y="381" type="curve"/>
      <point x="128" y="290"/>
      <point x="125" y="222"/>
      <point x="137" y="184" type="curve"/>
      <point x="158" y="122"/>
      <point x="201" y="87"/>
      <point x="269" y="90" type="curve"/>
      <point x="275" y="91"/>
      <point x="282" y="92"/>
      <point x="289" y="93" type="curve"/>
      <point x="288" y="67"/>
      <point x="288" y="34"/>
      <point x="287" y="9" type="curve"/>
      <point x="279" y="-2"/>
      <point x="260" y="0"/>
      <point x="245" y="0" type="curve" smooth="yes"/>
      <point x="228" y="0" type="line" smooth="yes"/>
      <point x="187" y="1"/>
      <point x="145" y="13"/>
    </contour>
  </outline>
</glyph>
<glyph name="seven" format="1">
  <advance width="476"/>
  <unicode hex="0037"/>
  <outline>
    <contour>
      <point x="24" y="610" type="line"/>
      <point x="26" y="641"/>
      <point x="26" y="676"/>
      <point x="27" y="706" type="curve"/>
      <point x="27" y="707" type="line"/>
      <point x="166" y="710"/>
      <point x="331" y="718"/>
      <point x="462" y="705" type="curve"/>
      <point x="462" y="704" type="line"/>
      <point x="460" y="668"/>
      <point x="462" y="641"/>
      <point x="462" y="606" type="curve"/>
      <point x="334" y="311"/>
      <point x="264" y="196"/>
      <point x="168" y="7" type="curve"/>
      <point x="133" y="7"/>
      <point x="89" y="-2"/>
      <point x="59" y="6" type="curve"/>
      <point x="146" y="183"/>
      <point x="298" y="529"/>
      <point x="336" y="607" type="curve"/>
      <point x="317" y="608"/>
      <point x="295" y="609"/>
      <point x="272" y="610" type="curve"/>
      <point x="211" y="610" type="line"/>
      <point x="160" y="611"/>
      <point x="116" y="612"/>
      <point x="84" y="612" type="curve" smooth="yes"/>
      <point x="63" y="611"/>
      <point x="43" y="611"/>
      <point x="26" y="610" type="curve" smooth="yes"/>
    </contour>
  </outline>
</glyph>
<glyph name="question" format="1">
  <advance width="451"/>
  <unicode hex="003F"/>
  <outline>
    <contour>
      <point x="186" y="234" type="curve"/>
      <point x="195" y="291"/>
      <point x="213" y="328"/>
      <point x="255" y="381" type="curve" smooth="yes"/>
      <point x="291" y="423"/>
      <point x="317" y="459"/>
      <point x="326" y="502" type="curve" smooth="yes"/>
      <point x="337" y="564"/>
      <point x="291" y="612"/>
      <point x="210" y="606" type="curve" smooth="yes"/>
      <point x="132" y="608"/>
      <point x="119" y="529"/>
      <point x="102" y="496" type="curve"/>
      <point x="75" y="494"/>
      <point x="46" y="497"/>
      <point x="16" y="498" type="curve"/>
      <point x="16" y="499" type="line"/>
      <point x="21" y="600"/>
      <point x="99" y="702"/>
      <point x="213" y="707" type="curve"/>
      <point x="336" y="718"/>
      <point x="444" y="630"/>
      <point x="430" y="511" type="curve" smooth="yes"/>
      <point x="420" y="427"/>
      <point x="360" y="387"/>
      <point x="323" y="336" type="curve" smooth="yes"/>
      <point x="294" y="297"/>
      <point x="279" y="265"/>
      <point x="272" y="218" type="curve"/>
      <point x="270" y="201"/>
      <point x="268" y="188"/>
      <point x="270" y="180" type="curve"/>
      <point x="270" y="179" type="line"/>
      <point x="242" y="175"/>
      <point x="213" y="178"/>
      <point x="187" y="177" type="curve"/>
      <point x="186" y="177" type="line"/>
      <point x="183" y="184"/>
      <point x="184" y="194"/>
      <point x="184" y="202" type="curve" smooth="yes"/>
      <point x="185" y="213"/>
      <point x="185" y="223"/>
    </contour>
    <contour>
      <point x="187" y="0" type="curve"/>
      <point x="184" y="0" type="line"/>
      <point x="179" y="30"/>
      <point x="183" y="97"/>
      <point x="183" y="116" type="curve"/>
      <point x="205" y="125"/>
      <point x="249" y="124"/>
      <point x="267" y="119" type="curve"/>
      <point x="267" y="117"/>
      <point x="261" y="21"/>
      <point x="261" y="2" type="curve" smooth="yes"/>
      <point x="261" y="0" type="line"/>
      <point x="259" y="0" type="line" smooth="yes"/>
      <point x="235" y="0"/>
      <point x="211" y="0"/>
    </contour>
  </outline>
</glyph>
<glyph name="N" format="1">
  <advance width="498"/>
  <unicode hex="004E"/>
  <outline>
    <contour>
      <point x="372" y="0" type="line"/>
      <point x="337" y="71"/>
      <point x="239" y="253"/>
      <point x="160" y="420" type="curve" smooth="yes"/>
      <point x="146" y="451"/>
      <point x="143" y="465"/>
      <point x="140" y="453" type="curve" smooth="yes"/>
      <point x="140" y="430"/>
      <point x="141" y="335"/>
      <point x="141" y="94" type="curve" smooth="yes"/>
      <point x="141" y="68" type="line" smooth="yes"/>
      <point x="141" y="43"/>
      <point x="141" y="19"/>
      <point x="142" y="0" type="curve"/>
      <point x="130" y="-3"/>
      <point x="120" y="-4"/>
      <point x="108" y="-3" type="curve" smooth="yes"/>
      <point x="87" y="-3"/>
      <point x="65" y="1"/>
      <point x="42" y="1" type="curve"/>
      <point x="42" y="71" type="line" smooth="yes"/>
      <point x="42" y="198"/>
      <point x="39" y="307"/>
      <point x="39" y="432" type="curve" smooth="yes"/>
      <point x="39" y="524"/>
      <point x="41" y="615"/>
      <point x="48" y="700" type="curve"/>
      <point x="58" y="702"/>
      <point x="70" y="702"/>
      <point x="85" y="701" type="curve" smooth="yes"/>
      <point x="100" y="700"/>
      <point x="136" y="697"/>
      <point x="136" y="694" type="curve"/>
      <point x="153" y="652"/>
      <point x="167" y="626"/>
      <point x="199" y="565" type="curve" smooth="yes"/>
      <point x="284" y="411"/>
      <point x="383" y="184"/>
      <point x="368" y="206" type="curve" smooth="yes"/>
      <point x="370" y="261"/>
      <point x="363" y="367"/>
      <point x="363" y="408" type="curve" smooth="yes"/>
      <point x="362" y="504"/>
      <point x="359" y="573"/>
      <point x="358" y="621" type="curve" smooth="yes"/>
      <point x="357" y="661"/>
      <point x="358" y="674"/>
      <point x="358" y="706" type="curve"/>
      <point x="374" y="708"/>
      <point x="391" y="709"/>
      <point x="408" y="709" type="curve" smooth="yes"/>
      <point x="426" y="708"/>
      <point x="441" y="707"/>
      <point x="456" y="704" type="curve"/>
      <point x="456" y="382" type="line"/>
      <point x="457" y="326"/>
      <point x="457" y="268"/>
      <point x="457" y="211" type="curve" smooth="yes"/>
      <point x="457" y="172"/>
      <point x="456" y="137"/>
      <point x="456" y="100" type="curve" smooth="yes"/>
      <point x="454" y="75"/>
      <point x="455" y="49"/>
      <point x="457" y="20" type="curve" smooth="yes"/>
      <point x="457" y="0" type="line"/>
    </contour>
  </outline>
</glyph>
<glyph name="R" format="1">
  <advance width="518"/>
  <unicode hex="0052"/>
  <outline>
    <contour>
      <point x="517" y="3" type="line"/>
      <point x="476" y="3"/>
      <point x="436" y="-1"/>
      <point x="402" y="1" type="curve"/>
      <point x="346" y="70"/>
      <point x="275" y="168"/>
      <point x="201" y="239" type="curve" smooth="yes"/>
      <point x="185" y="252"/>
      <point x="169" y="265"/>
      <point x="153" y="278" type="curve"/>
      <point x="152" y="261"/>
      <point x="151" y="239"/>
      <point x="151" y="212" type="curve" smooth="yes"/>
      <point x="149" y="128"/>
      <point x="155" y="49"/>
      <point x="158" y="7" type="curve"/>
      <point x="117" y="-7"/>
      <point x="50" y="2"/>
      <point x="40" y="0" type="curve"/>
      <point x="48" y="0"/>
      <point x="43" y="632"/>
      <point x="33" y="699" type="curve"/>
      <point x="108" y="710"/>
      <point x="199" y="724"/>
      <point x="296" y="713" type="curve"/>
      <point x="454" y="705"/>
      <point x="556" y="532"/>
      <point x="473" y="393" type="curve"/>
      <point x="443" y="337"/>
      <point x="412" y="306"/>
      <point x="253" y="309" type="curve"/>
      <point x="363" y="185"/>
      <point x="386" y="164"/>
      <point x="516" y="3" type="curve"/>
    </contour>
    <contour>
      <point x="129" y="614" type="curve"/>
      <point x="140" y="556"/>
      <point x="135" y="463"/>
      <point x="135" y="441" type="curve" smooth="yes"/>
      <point x="135" y="421"/>
      <point x="136" y="408"/>
      <point x="137" y="401" type="curve"/>
      <point x="138" y="401" type="line"/>
      <point x="218" y="395"/>
      <point x="283" y="393"/>
      <point x="325" y="400" type="curve"/>
      <point x="365" y="407"/>
      <point x="387" y="434"/>
      <point x="393" y="480" type="curve" smooth="yes"/>
      <point x="406" y="570"/>
      <point x="350" y="617"/>
      <point x="268" y="625" type="curve" smooth="yes"/>
      <point x="234" y="629"/>
      <point x="187" y="624"/>
    </contour>
  </outline>
</glyph>
<glyph name="S" format="1">
  <advance width="485"/>
  <unicode hex="0053"/>
  <outline>
    <contour>
      <point x="462" y="474" type="line"/>
      <point x="428" y="468"/>
      <point x="391" y="466"/>
      <point x="361" y="474" type="curve"/>
      <point x="371" y="533"/>
      <point x="347" y="573"/>
      <point x="303" y="588" type="curve" smooth="yes"/>
      <point x="223" y="616"/>
      <point x="118" y="559"/>
      <point x="127" y="477" type="curve"/>
      <point x="136" y="426"/>
      <point x="173" y="400"/>
      <point x="232" y="398" type="curve" smooth="yes"/>
      <point x="396" y="393"/>
      <point x="467" y="311"/>
      <point x="463" y="212" type="curve" smooth="yes"/>
      <point x="461" y="63"/>
      <point x="361" y="-9"/>
      <point x="248" y="-5" type="curve" smooth="yes"/>
      <point x="140" y="-1"/>
      <point x="25" y="59"/>
      <point x="15" y="171" type="curve" smooth="yes"/>
      <point x="15" y="172" type="line"/>
      <point x="13" y="182"/>
      <point x="11" y="194"/>
      <point x="12" y="206" type="curve"/>
      <point x="45" y="210"/>
      <point x="84" y="206"/>
      <point x="114" y="206" type="curve"/>
      <point x="113" y="155"/>
      <point x="144" y="115"/>
      <point x="216" y="97" type="curve" smooth="yes"/>
      <point x="297" y="78"/>
      <point x="367" y="134"/>
      <point x="359" y="215" type="curve"/>
      <point x="348" y="310"/>
      <point x="253" y="301"/>
      <point x="167" y="310" type="curve" smooth="yes"/>
      <point x="95" y="321"/>
      <point x="47" y="371"/>
      <point x="31" y="423" type="curve" smooth="yes"/>
      <point x="18" y="463"/>
      <point x="19" y="504"/>
      <point x="31" y="542" type="curve" smooth="yes"/>
      <point x="49" y="604"/>
      <point x="94" y="657"/>
      <point x="155" y="683" type="curve" smooth="yes"/>
      <point x="220" y="710"/>
      <point x="313" y="701"/>
      <point x="377" y="672" type="curve"/>
      <point x="441" y="639"/>
      <point x="482" y="574"/>
      <point x="463" y="474" type="curve"/>
    </contour>
  </outline>
</glyph>
<glyph name="T" format="1">
  <advance width="443"/>
  <unicode hex="0054"/>
  <outline>
    <contour>
      <point x="432" y="695" type="curve"/>
      <point x="434" y="665"/>
      <point x="433" y="625"/>
      <point x="428" y="592" type="curve"/>
      <point x="413" y="595"/>
      <point x="394" y="596"/>
      <point x="366" y="595" type="curve" smooth="yes"/>
      <point x="350" y="594"/>
      <point x="329" y="593"/>
      <point x="302" y="593" type="curve"/>
      <point x="276" y="593" type="line"/>
      <point x="277" y="589"/>
      <point x="277" y="585"/>
      <point x="276" y="581" type="curve" smooth="yes"/>
      <point x="275" y="575"/>
      <point x="275" y="510"/>
      <point x="275" y="446" type="curve" smooth="yes"/>
      <point x="276" y="374"/>
      <point x="277" y="244"/>
      <point x="282" y="8" type="curve" smooth="yes"/>
      <point x="282" y="6" type="line"/>
      <point x="244" y="0"/>
      <point x="206" y="6"/>
      <point x="168" y="-1" type="curve"/>
      <point x="167" y="3"/>
      <point x="168" y="34"/>
      <point x="168" y="95" type="curve" smooth="yes"/>
      <point x="169" y="135"/>
      <point x="169" y="190"/>
      <point x="168" y="262" type="curve" smooth="yes"/>
      <point x="167" y="334"/>
      <point x="165" y="441"/>
      <point x="161" y="584" type="curve"/>
      <point x="161" y="588" type="line" smooth="yes"/>
      <point x="132" y="596"/>
      <point x="24" y="595"/>
      <point x="15" y="597" type="curve"/>
      <point x="10" y="606"/>
      <point x="10" y="654"/>
      <point x="10" y="704" type="curve"/>
      <point x="146" y="705"/>
      <point x="295" y="710"/>
    </contour>
  </outline>
</glyph>
<glyph name="Z" format="1">
  <advance width="474"/>
  <unicode hex="005A"/>
  <outline>
    <contour>
      <point x="452" y="592" type="line"/>
      <point x="349" y="411"/>
      <point x="241" y="249"/>
      <point x="143" y="98" type="curve"/>
      <point x="143" y="98" type="line"/>
      <point x="275" y="104"/>
      <point x="253" y="105"/>
      <point x="445" y="106" type="curve"/>
      <point x="445" y="95" type="line" smooth="yes"/>
      <point x="448" y="66"/>
      <point x="445" y="30"/>
      <point x="443" y="0" type="curve" smooth="yes"/>
      <point x="443" y="-2" type="line"/>
      <point x="316" y="5"/>
      <point x="177" y="7"/>
      <point x="34" y="-1" type="curve"/>
      <point x="27" y="28"/>
      <point x="33" y="65"/>
      <point x="30" y="103" type="curve"/>
      <point x="122" y="264"/>
      <point x="265" y="484"/>
      <point x="336" y="593" type="curve"/>
      <point x="316" y="596"/>
      <point x="163" y="599"/>
      <point x="123" y="600" type="curve" smooth="yes"/>
      <point x="82" y="602"/>
      <point x="43" y="601"/>
      <point x="21" y="601" type="curve"/>
      <point x="13" y="616"/>
      <point x="21" y="652"/>
      <point x="14" y="676" type="curve"/>
      <point x="14" y="677" type="line"/>
      <point x="14" y="680"/>
      <point x="13" y="685"/>
      <point x="13" y="690" type="curve"/>
      <point x="150" y="703"/>
      <point x="298" y="695"/>
      <point x="451" y="694" type="curve"/>
      <point x="455" y="661"/>
      <point x="451" y="628"/>
      <point x="452" y="599" type="curve"/>
    </contour>
  </outline>
</glyph>
<glyph name="backslash" format="1">
  <advance width="412"/>
  <unicode hex="005C"/>
  <outline>
    <contour>
      <point x="219" y="181" type="curve" smooth="yes"/>
      <point x="185" y="267"/>
      <point x="159" y="355"/>
      <point x="128" y="441" type="curve"/>
      <point x="54" y="662"/>
      <point x="45" y="696"/>
      <point x="43" y="701" type="curve"/>
      <point x="63" y="711"/>
      <point x="102" y="704"/>
      <point x="132" y="709" type="curve"/>
      <point x="149" y="646"/>
      <point x="162" y="606"/>
      <point x="192" y="517" type="curve"/>
      <point x="241" y="363"/>
      <point x="276" y="280"/>
      <point x="295" y="229" type="curve" smooth="yes"/>
      <point x="317" y="167"/>
      <point x="321" y="154"/>
      <point x="348" y="80" type="curve" smooth="yes"/>
      <point x="355" y="60"/>
      <point x="377" y="3"/>
      <point x="374" y="-1" type="curve" smooth="yes"/>
      <point x="299" y="1"/>
      <point x="288" y="-2"/>
      <point x="285" y="7" type="curve" smooth="yes"/>
      <point x="264" y="65"/>
      <point x="241" y="123"/>
    </contour>
  </outline>
</glyph>
<glyph name="f" format="1">
  <advance width="379"/>
  <unicode hex="0066"/>
  <outline>
    <contour>
      <point x="193" y="3" type="line"/>
      <point x="161" y="6"/>
      <point x="147" y="-3"/>
      <point x="108" y="3" type="curve"/>
      <point x="104" y="27"/>
      <point x="104" y="103"/>
      <point x="104" y="177" type="curve" smooth="yes"/>
      <point x="104" y="244"/>
      <point x="106" y="332"/>
      <point x="106" y="373" type="curve"/>
      <point x="95" y="372"/>
      <point x="81" y="372"/>
      <point x="62" y="372" type="curve" smooth="yes"/>
      <point x="43" y="373"/>
      <point x="27" y="373"/>
      <point x="14" y="372" type="curve"/>
      <point x="13" y="401"/>
      <point x="12" y="429"/>
      <point x="11" y="458" type="curve"/>
      <point x="35" y="458"/>
      <point x="85" y="458"/>
      <point x="104" y="457" type="curve"/>
      <point x="101" y="539"/>
      <point x="99" y="668"/>
      <point x="217" y="683" type="curve"/>
      <point x="279" y="689"/>
      <point x="333" y="689"/>
      <point x="374" y="688" type="curve"/>
      <point x="384" y="657"/>
      <point x="379" y="625"/>
      <point x="375" y="597" type="curve"/>
      <point x="357" y="598"/>
      <point x="311" y="596"/>
      <point x="263" y="594" type="curve" smooth="yes"/>
      <point x="199" y="590"/>
      <point x="190" y="595"/>
      <point x="197" y="454" type="curve"/>
      <point x="256" y="455"/>
      <point x="314" y="455"/>
      <point x="373" y="455" type="curve"/>
      <point x="369" y="436"/>
      <point x="372" y="418"/>
      <point x="368" y="369" type="curve"/>
      <point x="325" y="370"/>
      <point x="288" y="371"/>
      <point x="253" y="372" type="curve" smooth="yes"/>
      <point x="228" y="372"/>
      <point x="209" y="373"/>
      <point x="193" y="373" type="curve"/>
      <point x="193" y="137" type="line"/>
    </contour>
  </outline>
</glyph>
<glyph name="h" format="1">
  <advance width="448"/>
  <unicode hex="0068"/>
  <outline>
    <contour>
      <point x="126" y="447" type="curve"/>
      <point x="149" y="467"/>
      <point x="173" y="492"/>
      <point x="234" y="496" type="curve" smooth="yes"/>
      <point x="306" y="505"/>
      <point x="359" y="493"/>
      <point x="393" y="464" type="curve" smooth="yes"/>
      <point x="435" y="426"/>
      <point x="405" y="139"/>
      <point x="414" y="2" type="curve"/>
      <point x="379" y="-3"/>
      <point x="355" y="-3"/>
      <point x="328" y="-2" type="curve"/>
      <point x="327" y="13"/>
      <point x="326" y="31"/>
      <point x="326" y="50" type="curve" smooth="yes"/>
      <point x="326" y="110" type="line" smooth="yes"/>
      <point x="326" y="145"/>
      <point x="326" y="215"/>
      <point x="326" y="306" type="curve"/>
      <point x="325" y="338"/>
      <point x="318" y="374"/>
      <point x="296" y="389" type="curve" smooth="yes"/>
      <point x="290" y="393"/>
      <point x="281" y="395"/>
      <point x="272" y="397" type="curve" smooth="yes"/>
      <point x="209" y="413"/>
      <point x="141" y="396"/>
      <point x="127" y="323" type="curve" smooth="yes"/>
      <point x="122" y="296"/>
      <point x="120" y="265"/>
      <point x="120" y="232" type="curve" smooth="yes"/>
      <point x="121" y="171"/>
      <point x="126" y="96"/>
      <point x="121" y="6" type="curve" smooth="yes"/>
      <point x="121" y="2" type="line"/>
      <point x="80" y="-9"/>
      <point x="86" y="1"/>
      <point x="36" y="-3" type="curve"/>
      <point x="36" y="161"/>
      <point x="32" y="547"/>
      <point x="36" y="723" type="curve"/>
      <point x="57" y="721"/>
      <point x="66" y="720"/>
      <point x="86" y="721" type="curve"/>
      <point x="96" y="721"/>
      <point x="124" y="725"/>
      <point x="124" y="720" type="curve"/>
      <point x="126" y="711"/>
      <point x="126" y="656"/>
      <point x="126" y="598" type="curve" smooth="yes"/>
      <point x="126" y="536" type="line" smooth="yes"/>
      <point x="126" y="501"/>
      <point x="126" y="462"/>
    </contour>
  </outline>
</glyph>
<glyph name="l" format="1">
  <advance width="206"/>
  <unicode hex="006C"/>
  <outline>
    <contour>
      <point x="152" y="724" type="line"/>
      <point x="152" y="560"/>
      <point x="143" y="167"/>
      <point x="151" y="6" type="curve"/>
      <point x="139" y="-8"/>
      <point x="69" y="4"/>
      <point x="55" y="0" type="curve"/>
      <point x="74" y="241"/>
      <point x="37" y="485"/>
      <point x="61" y="727" type="curve"/>
    </contour>
  </outline>
</glyph>
<glyph name="t" format="1">
  <advance width="387"/>
  <unicode hex="0074"/>
  <outline>
    <contour>
      <point x="207" y="532" type="line"/>
      <point x="207" y="515"/>
      <point x="208" y="496"/>
      <point x="208" y="476" type="curve"/>
      <point x="249" y="477"/>
      <point x="298" y="479"/>
      <point x="369" y="483" type="curve"/>
      <point x="380" y="467"/>
      <point x="372" y="428"/>
      <point x="373" y="398" type="curve"/>
      <point x="318" y="398"/>
      <point x="264" y="398"/>
      <point x="210" y="399" type="curve"/>
      <point x="210" y="246" type="line" smooth="yes"/>
      <point x="210" y="163"/>
      <point x="209" y="137"/>
      <point x="220" y="115" type="curve"/>
      <point x="245" y="83"/>
      <point x="351" y="86"/>
      <point x="373" y="87" type="curve"/>
      <point x="377" y="60"/>
      <point x="381" y="25"/>
      <point x="373" y="0" type="curve"/>
      <point x="344" y="-1"/>
      <point x="312" y="-2"/>
      <point x="277" y="-1" type="curve" smooth="yes"/>
      <point x="201" y="3"/>
      <point x="144" y="21"/>
      <point x="129" y="94" type="curve"/>
      <point x="119" y="187"/>
      <point x="117" y="286"/>
      <point x="118" y="395" type="curve"/>
      <point x="100" y="393"/>
      <point x="36" y="395"/>
      <point x="12" y="395" type="curve"/>
      <point x="13" y="422"/>
      <point x="14" y="449"/>
      <point x="15" y="477" type="curve"/>
      <point x="37" y="475"/>
      <point x="103" y="475"/>
      <point x="120" y="475" type="curve"/>
      <point x="120" y="501"/>
      <point x="119" y="545"/>
      <point x="119" y="580" type="curve" smooth="yes"/>
      <point x="119" y="621"/>
      <point x="118" y="658"/>
      <point x="121" y="686" type="curve"/>
      <point x="150" y="689"/>
      <point x="178" y="682"/>
      <point x="207" y="685" type="curve"/>
    </contour>
  </outline>
</glyph>
<glyph name="u" format="1">
  <advance width="450"/>
  <unicode hex="0075"/>
  <outline>
    <contour>
      <point x="324" y="53" type="curve"/>
      <point x="317" y="49"/>
      <point x="301" y="34"/>
      <point x="263" y="25" type="curve" smooth="yes"/>
      <point x="181" y="-4"/>
      <point x="98" y="-6"/>
      <point x="57" y="34" type="curve"/>
      <point x="29" y="59"/>
      <point x="32" y="133"/>
      <point x="31" y="229" type="curve" smooth="yes"/>
      <point x="33" y="322"/>
      <point x="38" y="429"/>
      <point x="34" y="498" type="curve"/>
      <point x="64" y="501"/>
      <point x="86" y="500"/>
      <point x="116" y="500" type="curve"/>
      <point x="121" y="444"/>
      <point x="116" y="358"/>
      <point x="119" y="290" type="curve" smooth="yes"/>
      <point x="120" y="265"/>
      <point x="120" y="225"/>
      <point x="123" y="178" type="curve" smooth="yes"/>
      <point x="126" y="133"/>
      <point x="140" y="113"/>
      <point x="171" y="105" type="curve"/>
      <point x="275" y="88"/>
      <point x="330" y="140"/>
      <point x="331" y="221" type="curve" smooth="yes"/>
      <point x="332" y="269"/>
      <point x="327" y="367"/>
      <point x="326" y="415" type="curve" smooth="yes"/>
      <point x="326" y="441"/>
      <point x="327" y="467"/>
      <point x="328" y="492" type="curve" smooth="yes"/>
      <point x="328" y="496" type="line"/>
      <point x="357" y="504"/>
      <point x="371" y="500"/>
      <point x="412" y="503" type="curve"/>
      <point x="412" y="339"/>
      <point x="418" y="178"/>
      <point x="413" y="2" type="curve"/>
      <point x="389" y="2"/>
      <point x="382" y="1"/>
      <point x="364" y="-1" type="curve"/>
      <point x="355" y="-1"/>
      <point x="326" y="-6"/>
      <point x="326" y="0" type="curve"/>
      <point x="324" y="25"/>
      <point x="325" y="39"/>
    </contour>
  </outline>
</glyph>
<glyph name="v" format="1">
  <advance width="429"/>
  <unicode hex="0076"/>
  <outline>
    <contour>
      <point x="102" y="498" type="curve"/>
      <point x="166" y="278"/>
      <point x="181" y="188"/>
      <point x="216" y="103" type="curve"/>
      <point x="241" y="167"/>
      <point x="276" y="318"/>
      <point x="339" y="496" type="curve"/>
      <point x="369" y="497"/>
      <point x="393" y="501"/>
      <point x="428" y="499" type="curve"/>
      <point x="368" y="337"/>
      <point x="353" y="232"/>
      <point x="273" y="1" type="curve"/>
      <point x="236" y="-5"/>
      <point x="192" y="-1"/>
      <point x="150" y="-1" type="curve"/>
      <point x="57" y="292"/>
      <point x="59" y="319"/>
      <point x="11" y="500" type="curve"/>
      <point x="45" y="496"/>
      <point x="76" y="499"/>
    </contour>
  </outline>
</glyph>
<glyph name="w" format="1">
  <advance width="683"/>
  <unicode hex="0077"/>
  <outline>
    <contour>
      <point x="111" y="497" type="curve"/>
      <point x="132" y="372"/>
      <point x="145" y="263"/>
      <point x="183" y="99" type="curve"/>
      <point x="250" y="289"/>
      <point x="280" y="394"/>
      <point x="302" y="500" type="curve"/>
      <point x="314" y="499"/>
      <point x="328" y="500"/>
      <point x="349" y="501" type="curve" smooth="yes"/>
      <point x="370" y="502"/>
      <point x="387" y="502"/>
      <point x="402" y="499" type="curve"/>
      <point x="418" y="419"/>
      <point x="433" y="319"/>
      <point x="501" y="106" type="curve"/>
      <point x="537" y="243"/>
      <point x="565" y="418"/>
      <point x="588" y="498" type="curve"/>
      <point x="615" y="499"/>
      <point x="642" y="502"/>
      <point x="682" y="499" type="curve"/>
      <point x="618" y="276"/>
      <point x="617" y="226"/>
      <point x="557" y="-1" type="curve"/>
      <point x="542" y="-4"/>
      <point x="527" y="-5"/>
      <point x="515" y="-4" type="curve" smooth="yes"/>
      <point x="493" y="-4"/>
      <point x="467" y="-3"/>
      <point x="444" y="-3" type="curve"/>
      <point x="421" y="88"/>
      <point x="389" y="207"/>
      <point x="346" y="345" type="curve"/>
      <point x="308" y="226"/>
      <point x="277" y="106"/>
      <point x="240" y="-2" type="curve"/>
      <point x="204" y="-6"/>
      <point x="151" y="-3"/>
      <point x="115" y="-3" type="curve"/>
      <point x="87" y="154"/>
      <point x="52" y="327"/>
      <point x="11" y="500" type="curve"/>
      <point x="45" y="497"/>
      <point x="79" y="500"/>
    </contour>
  </outline>
</glyph>
<glyph name="z" format="1">
  <advance width="456"/>
  <unicode hex="007A"/>
  <outline>
    <contour>
      <point x="434" y="497" type="curve"/>
      <point x="434" y="464"/>
      <point x="431" y="437"/>
      <point x="434" y="408" type="curve"/>
      <point x="381" y="337"/>
      <point x="290" y="262"/>
      <point x="149" y="94" type="curve"/>
      <point x="209" y="98"/>
      <point x="366" y="90"/>
      <point x="429" y="100" type="curve"/>
      <point x="429" y="70"/>
      <point x="431" y="38"/>
      <point x="431" y="7" type="curve"/>
      <point x="308" y="4"/>
      <point x="151" y="1"/>
      <point x="24" y="1" type="curve"/>
      <point x="26" y="47"/>
      <point x="21" y="60"/>
      <point x="22" y="88" type="curve"/>
      <point x="74" y="155"/>
      <point x="242" y="318"/>
      <point x="316" y="409" type="curve"/>
      <point x="273" y="407"/>
      <point x="118" y="410"/>
      <point x="28" y="398" type="curve"/>
      <point x="26" y="443"/>
      <point x="30" y="460"/>
      <point x="28" y="497" type="curve"/>
      <point x="136" y="497"/>
      <point x="234" y="498"/>
      <point x="306" y="498" type="curve"/>
      <point x="335" y="495"/>
      <point x="419" y="502"/>
    </contour>
  </outline>
</glyph>
<glyph name="cent" format="1">
  <advance width="350"/>
  <unicode hex="00A2"/>
  <outline>
    <contour>
      <point x="97" y="370" type="curve"/>
      <point x="92" y="251"/>
      <point x="91" y="176"/>
      <point x="160" y="162" type="curve"/>
      <point x="161" y="220"/>
      <point x="161" y="279"/>
      <point x="162" y="338" type="curve" smooth="yes"/>
      <point x="162" y="398"/>
      <point x="161" y="457"/>
      <point x="160" y="515" type="curve"/>
      <point x="108" y="516"/>
      <point x="95" y="456"/>
    </contour>
    <contour>
      <point x="197" y="162" type="line"/>
      <point x="243" y="173"/>
      <point x="265" y="221"/>
      <point x="261" y="292" type="curve"/>
      <point x="278" y="291"/>
      <point x="304" y="294"/>
      <point x="321" y="291" type="curve"/>
      <point x="322" y="285"/>
      <point x="323" y="279"/>
      <point x="323" y="274" type="curve"/>
      <point x="323" y="250"/>
      <point x="326" y="226"/>
      <point x="322" y="203" type="curve" smooth="yes"/>
      <point x="311" y="148"/>
      <point x="258" y="96"/>
      <point x="196" y="93" type="curve"/>
      <point x="196" y="81" type="line"/>
      <point x="195" y="69"/>
      <point x="198" y="28"/>
      <point x="192" y="28" type="curve"/>
      <point x="185" y="26"/>
      <point x="172" y="22"/>
      <point x="161" y="27" type="curve"/>
      <point x="160" y="48"/>
      <point x="161" y="67"/>
      <point x="160" y="91" type="curve"/>
      <point x="153" y="91"/>
      <point x="144" y="91"/>
      <point x="136" y="92" type="curve" smooth="yes"/>
      <point x="89" y="97"/>
      <point x="40" y="125"/>
      <point x="34" y="179" type="curve" smooth="yes"/>
      <point x="27" y="260"/>
      <point x="31" y="329"/>
      <point x="32" y="452" type="curve"/>
      <point x="31" y="530"/>
      <point x="72" y="599"/>
      <point x="160" y="588" type="curve"/>
      <point x="162" y="606"/>
      <point x="160" y="628"/>
      <point x="160" y="647" type="curve"/>
      <point x="171" y="653"/>
      <point x="182" y="656"/>
      <point x="196" y="652" type="curve"/>
      <point x="196" y="652" type="line"/>
      <point x="196" y="629"/>
      <point x="194" y="607"/>
      <point x="196" y="586" type="curve"/>
      <point x="287" y="574"/>
      <point x="338" y="484"/>
      <point x="325" y="400" type="curve"/>
      <point x="325" y="395"/>
      <point x="324" y="389"/>
      <point x="324" y="384" type="curve"/>
      <point x="294" y="380"/>
      <point x="275" y="380"/>
      <point x="258" y="384" type="curve"/>
      <point x="259" y="426"/>
      <point x="262" y="493"/>
      <point x="196" y="517" type="curve"/>
      <point x="196" y="501"/>
      <point x="195" y="486"/>
      <point x="195" y="471" type="curve" smooth="yes"/>
      <point x="195" y="380"/>
      <point x="197" y="309"/>
      <point x="196" y="213" type="curve" smooth="yes"/>
      <point x="196" y="185" type="line"/>
    </contour>
  </outline>
</glyph>
<glyph name="dieresis" format="1">
  <advance width="349"/>
  <unicode hex="00A8"/>
  <outline>
    <contour>
      <point x="57" y="522" type="line"/>
      <point x="54" y="522" type="line"/>
      <point x="49" y="548"/>
      <point x="53" y="606"/>
      <point x="53" y="623" type="curve"/>
      <point x="72" y="629"/>
      <point x="119" y="630"/>
      <point x="133" y="624" type="curve"/>
      <point x="133" y="622"/>
      <point x="127" y="541"/>
      <point x="127" y="523" type="curve"/>
      <point x="127" y="522" type="line"/>
      <point x="127" y="521" type="line"/>
      <point x="125" y="521" type="line"/>
    </contour>
    <contour>
      <point x="223" y="522" type="line"/>
      <point x="220" y="522" type="line"/>
      <point x="215" y="548"/>
      <point x="219" y="606"/>
      <point x="219" y="623" type="curve"/>
      <point x="238" y="629"/>
      <point x="285" y="630"/>
      <point x="299" y="624" type="curve"/>
      <point x="299" y="622"/>
      <point x="293" y="541"/>
      <point x="293" y="523" type="curve"/>
      <point x="293" y="522" type="line"/>
      <point x="293" y="521" type="line"/>
      <point x="291" y="521" type="line"/>
    </contour>
  </outline>
</glyph>
<glyph name="uni00AD" format="1">
  <advance width="369"/>
  <unicode hex="00AD"/>
  <outline>
    <contour>
      <point x="36" y="304" type="curve"/>
      <point x="47" y="304"/>
      <point x="321" y="306"/>
      <point x="333" y="306" type="curve"/>
      <point x="328" y="279"/>
      <point x="331" y="275"/>
      <point x="331" y="248" type="curve"/>
      <point x="307" y="247"/>
      <point x="38" y="249"/>
      <point x="37" y="249" type="curve"/>
      <point x="37" y="252"/>
      <point x="36" y="288"/>
    </contour>
  </outline>
</glyph>
<glyph name="registered" format="1">
  <advance width="553"/>
  <unicode hex="00AE"/>
  <outline>
    <contour>
      <point x="504" y="243" type="curve" smooth="yes"/>
      <point x="467" y="118"/>
      <point x="349" y="120"/>
      <point x="255" y="113" type="curve"/>
      <point x="136" y="113"/>
      <point x="55" y="162"/>
      <point x="45" y="247" type="curve"/>
      <point x="34" y="312"/>
      <point x="34" y="378"/>
      <point x="40" y="446" type="curve" smooth="yes"/>
      <point x="47" y="527"/>
      <point x="118" y="584"/>
      <point x="198" y="596" type="curve"/>
      <point x="285" y="601"/>
      <point x="378" y="611"/>
      <point x="456" y="553" type="curve" smooth="yes"/>
      <point x="537" y="494"/>
      <point x="522" y="384"/>
      <point x="510" y="282" type="curve"/>
      <point x="507" y="269"/>
      <point x="507" y="256"/>
    </contour>
    <contour>
      <point x="446" y="494" type="curve" smooth="yes"/>
      <point x="404" y="550"/>
      <point x="279" y="550"/>
      <point x="190" y="540" type="curve"/>
      <point x="111" y="540"/>
      <point x="96" y="454"/>
      <point x="93" y="417" type="curve" smooth="yes"/>
      <point x="89" y="363"/>
      <point x="91" y="302"/>
      <point x="97" y="251" type="curve" smooth="yes"/>
      <point x="100" y="204"/>
      <point x="145" y="164"/>
      <point x="209" y="164" type="curve"/>
      <point x="252" y="164"/>
      <point x="302" y="166"/>
      <point x="349" y="171" type="curve"/>
      <point x="472" y="178"/>
      <point x="469" y="314"/>
      <point x="466" y="410" type="curve" smooth="yes"/>
      <point x="465" y="439"/>
      <point x="468" y="469"/>
    </contour>
    <contour>
      <point x="388" y="210" type="curve"/>
      <point x="372" y="208"/>
      <point x="355" y="207"/>
      <point x="339" y="208" type="curve"/>
      <point x="299" y="224"/>
      <point x="236" y="312"/>
      <point x="236" y="316" type="curve"/>
      <point x="236" y="316" type="line"/>
      <point x="235" y="311"/>
      <point x="235" y="304"/>
      <point x="235" y="297" type="curve" smooth="yes"/>
      <point x="235" y="286"/>
      <point x="234" y="273"/>
      <point x="235" y="264" type="curve" smooth="yes"/>
      <point x="235" y="246"/>
      <point x="238" y="227"/>
      <point x="238" y="213" type="curve"/>
      <point x="218" y="208"/>
      <point x="190" y="208"/>
      <point x="184" y="209" type="curve" smooth="yes"/>
      <point x="183" y="218"/>
      <point x="182" y="256"/>
      <point x="182" y="302" type="curve" smooth="yes"/>
      <point x="182" y="378"/>
      <point x="180" y="480"/>
      <point x="177" y="500" type="curve"/>
      <point x="206" y="502"/>
      <point x="248" y="509"/>
      <point x="289" y="506" type="curve" smooth="yes"/>
      <point x="337" y="501"/>
      <point x="377" y="460"/>
      <point x="377" y="415" type="curve" smooth="yes"/>
      <point x="377" y="399"/>
      <point x="372" y="384"/>
      <point x="363" y="369" type="curve"/>
      <point x="364" y="370" type="line"/>
      <point x="354" y="351"/>
      <point x="342" y="339"/>
      <point x="318" y="336" type="curve" smooth="yes"/>
      <point x="317" y="336" type="line"/>
      <point x="309" y="334"/>
      <point x="296" y="333"/>
      <point x="284" y="333" type="curve"/>
      <point x="316" y="294"/>
      <point x="336" y="275"/>
    </contour>
    <contour>
      <point x="226" y="457" type="curve"/>
      <point x="226" y="448" type="line" smooth="yes"/>
      <point x="226" y="435"/>
      <point x="228" y="416"/>
      <point x="228" y="410" type="curve" smooth="yes"/>
      <point x="228" y="392" type="line" smooth="yes"/>
      <point x="228" y="371"/>
      <point x="260" y="378"/>
      <point x="275" y="378" type="curve"/>
      <point x="306" y="378"/>
      <point x="318" y="382"/>
      <point x="322" y="408" type="curve" smooth="yes"/>
      <point x="329" y="452"/>
      <point x="296" y="462"/>
      <point x="263" y="461" type="curve" smooth="yes"/>
      <point x="253" y="461"/>
      <point x="241" y="459"/>
    </contour>
  </outline>
</glyph>
<glyph name="degree" format="1">
  <advance width="298"/>
  <unicode hex="00B0"/>
  <outline>
    <contour>
      <point x="79" y="410" type="curve"/>
      <point x="57" y="421"/>
      <point x="42" y="434"/>
      <point x="35" y="451" type="curve" smooth="yes"/>
      <point x="31" y="462"/>
      <point x="30" y="471"/>
      <point x="29" y="480" type="curve" smooth="yes"/>
      <point x="26" y="515"/>
      <point x="23" y="555"/>
      <point x="32" y="588" type="curve"/>
      <point x="43" y="621"/>
      <point x="72" y="641"/>
      <point x="108" y="648" type="curve"/>
      <point x="112" y="648"/>
      <point x="117" y="649"/>
      <point x="121" y="649" type="curve" smooth="yes"/>
      <point x="136" y="650"/>
      <point x="147" y="650"/>
      <point x="160" y="650" type="curve" smooth="yes"/>
      <point x="175" y="650"/>
      <point x="188" y="649"/>
      <point x="201" y="645" type="curve" smooth="yes"/>
      <point x="208" y="642"/>
      <point x="212" y="641"/>
      <point x="219" y="638" type="curve" smooth="yes"/>
      <point x="230" y="634"/>
      <point x="239" y="628"/>
      <point x="247" y="621" type="curve" smooth="yes"/>
      <point x="262" y="609"/>
      <point x="268" y="593"/>
      <point x="271" y="574" type="curve" smooth="yes"/>
      <point x="274" y="559"/>
      <point x="273" y="545"/>
      <point x="273" y="530" type="curve" smooth="yes"/>
      <point x="273" y="483"/>
      <point x="262" y="429"/>
      <point x="212" y="411" type="curve" smooth="yes"/>
      <point x="205" y="408"/>
      <point x="199" y="407"/>
      <point x="192" y="406" type="curve" smooth="yes"/>
      <point x="153" y="399"/>
      <point x="115" y="399"/>
    </contour>
    <contour>
      <point x="104" y="602" type="curve"/>
      <point x="87" y="596"/>
      <point x="76" y="583"/>
      <point x="72" y="565" type="curve"/>
      <point x="69" y="539"/>
      <point x="71" y="515"/>
      <point x="71" y="490" type="curve" smooth="yes"/>
      <point x="71" y="467"/>
      <point x="85" y="448"/>
      <point x="108" y="445" type="curve"/>
      <point x="131" y="444"/>
      <point x="151" y="444"/>
      <point x="174" y="447" type="curve" smooth="yes"/>
      <point x="178" y="447"/>
      <point x="180" y="449"/>
      <point x="184" y="449" type="curve"/>
      <point x="185" y="449" type="line"/>
      <point x="214" y="452"/>
      <point x="221" y="471"/>
      <point x="225" y="494" type="curve" smooth="yes"/>
      <point x="228" y="507"/>
      <point x="228" y="518"/>
      <point x="230" y="532" type="curve" smooth="yes"/>
      <point x="233" y="551"/>
      <point x="233" y="569"/>
      <point x="219" y="585" type="curve" smooth="yes"/>
      <point x="213" y="592"/>
      <point x="207" y="597"/>
      <point x="200" y="600" type="curve" smooth="yes"/>
      <point x="168" y="609"/>
      <point x="133" y="607"/>
    </contour>
  </outline>
</glyph>
<glyph name="plusminus" format="1">
  <advance width="501"/>
  <unicode hex="00B1"/>
  <outline>
    <contour>
      <point x="194" y="255" type="curve"/>
      <point x="194" y="256"/>
      <point x="193" y="255"/>
      <point x="193" y="258" type="curve" smooth="yes"/>
      <point x="190" y="284"/>
      <point x="192" y="296"/>
      <point x="192" y="325" type="curve" smooth="yes"/>
      <point x="192" y="337"/>
      <point x="192" y="348"/>
      <point x="192" y="358" type="curve" smooth="yes"/>
      <point x="192" y="367"/>
      <point x="192" y="401"/>
      <point x="189" y="404" type="curve"/>
      <point x="187" y="404" type="line" smooth="yes"/>
      <point x="177" y="404"/>
      <point x="49" y="411"/>
      <point x="49" y="417" type="curve"/>
      <point x="51" y="434"/>
      <point x="46" y="497"/>
      <point x="46" y="503" type="curve"/>
      <point x="50" y="502"/>
      <point x="81" y="505"/>
      <point x="131" y="507" type="curve" smooth="yes"/>
      <point x="175" y="509"/>
      <point x="196" y="512"/>
      <point x="199" y="513" type="curve"/>
      <point x="199" y="612"/>
      <point x="200" y="623"/>
      <point x="206" y="665" type="curve"/>
      <point x="215" y="656"/>
      <point x="283" y="664"/>
      <point x="303" y="661" type="curve"/>
      <point x="303" y="635" type="line" smooth="yes"/>
      <point x="303" y="584"/>
      <point x="303" y="518"/>
      <point x="305" y="514" type="curve"/>
      <point x="334" y="510"/>
      <point x="416" y="516"/>
      <point x="449" y="510" type="curve"/>
      <point x="447" y="473"/>
      <point x="449" y="445"/>
      <point x="445" y="412" type="curve"/>
      <point x="440" y="409"/>
      <point x="412" y="409"/>
      <point x="369" y="409" type="curve" smooth="yes"/>
      <point x="276" y="409"/>
      <point x="305" y="402"/>
      <point x="301" y="334" type="curve" smooth="yes"/>
      <point x="300" y="297"/>
      <point x="296" y="270"/>
      <point x="296" y="259" type="curve" smooth="yes"/>
      <point x="296" y="257" type="line" smooth="yes"/>
      <point x="296" y="254"/>
      <point x="275" y="254"/>
      <point x="250" y="254" type="curve" smooth="yes"/>
      <point x="220" y="255"/>
      <point x="197" y="256"/>
    </contour>
    <contour>
      <point x="26" y="37" type="curve"/>
      <point x="26" y="59"/>
      <point x="29" y="131"/>
      <point x="29" y="142" type="curve"/>
      <point x="472" y="142" type="line"/>
      <point x="473" y="105"/>
      <point x="470" y="67"/>
      <point x="475" y="30" type="curve"/>
      <point x="474" y="30" type="line"/>
      <point x="389" y="31"/>
      <point x="111" y="36"/>
    </contour>
  </outline>
</glyph>
<glyph name="threesuperior" format="1">
  <advance width="254"/>
  <unicode hex="00B3"/>
  <outline>
    <contour>
      <point x="46" y="349" type="curve"/>
      <point x="26" y="367"/>
      <point x="31" y="394"/>
      <point x="27" y="429" type="curve"/>
      <point x="36" y="428"/>
      <point x="56" y="431"/>
      <point x="68" y="431" type="curve"/>
      <point x="69" y="431" type="line"/>
      <point x="75" y="426"/>
      <point x="69" y="375"/>
      <point x="122" y="377" type="curve" smooth="yes"/>
      <point x="149" y="378"/>
      <point x="171" y="387"/>
      <point x="173" y="410" type="curve" smooth="yes"/>
      <point x="182" y="458"/>
      <point x="169" y="474"/>
      <point x="130" y="474" type="curve"/>
      <point x="114" y="475"/>
      <point x="100" y="475"/>
      <point x="92" y="473" type="curve"/>
      <point x="86" y="485"/>
      <point x="91" y="511"/>
      <point x="89" y="517" type="curve"/>
      <point x="96" y="520"/>
      <point x="109" y="519"/>
      <point x="126" y="519" type="curve" smooth="yes"/>
      <point x="140" y="518"/>
      <point x="151" y="519"/>
      <point x="158" y="519" type="curve" smooth="yes"/>
      <point x="172" y="521"/>
      <point x="178" y="535"/>
      <point x="176" y="569" type="curve" smooth="yes"/>
      <point x="175" y="590"/>
      <point x="164" y="602"/>
      <point x="145" y="605" type="curve"/>
      <point x="106" y="611"/>
      <point x="69" y="601"/>
      <point x="69" y="552" type="curve"/>
      <point x="55" y="552"/>
      <point x="29" y="551"/>
      <point x="27" y="551" type="curve"/>
      <point x="27" y="552" type="line"/>
      <point x="27" y="564"/>
      <point x="24" y="582"/>
      <point x="28" y="595" type="curve" smooth="yes"/>
      <point x="51" y="668"/>
      <point x="183" y="669"/>
      <point x="215" y="614" type="curve"/>
      <point x="222" y="604"/>
      <point x="222" y="592"/>
      <point x="222" y="581" type="curve"/>
      <point x="222" y="529"/>
      <point x="223" y="479"/>
      <point x="221" y="430" type="curve"/>
      <point x="214" y="368"/>
      <point x="199" y="315"/>
      <point x="92" y="331" type="curve" smooth="yes"/>
      <point x="70" y="333"/>
      <point x="48" y="348"/>
    </contour>
  </outline>
</glyph>
<glyph name="acute" format="1">
  <advance width="255"/>
  <unicode hex="00B4"/>
  <outline>
    <contour>
      <point x="231" y="632" type="curve"/>
      <point x="214" y="650"/>
      <point x="196" y="668"/>
      <point x="179" y="685" type="curve"/>
      <point x="139" y="649"/>
      <point x="67" y="570"/>
      <point x="20" y="527" type="curve"/>
      <point x="33" y="523"/>
      <point x="79" y="519"/>
      <point x="119" y="524" type="curve"/>
      <point x="123" y="533"/>
      <point x="222" y="627"/>
    </contour>
  </outline>
</glyph>
<glyph name="cedilla" format="1">
  <advance width="190"/>
  <unicode hex="00B8"/>
  <outline>
    <contour>
      <point x="155" y="-6" type="curve"/>
      <point x="154" y="-6" type="line"/>
      <point x="149" y="-26"/>
      <point x="116" y="-126"/>
      <point x="107" y="-147" type="curve"/>
      <point x="77" y="-148" type="line" smooth="yes"/>
      <point x="59" y="-149"/>
      <point x="30" y="-148"/>
      <point x="30" y="-147" type="curve" smooth="yes"/>
      <point x="70" y="-34"/>
      <point x="60" y="-59"/>
      <point x="81" y="0" type="curve"/>
      <point x="99" y="-6"/>
      <point x="126" y="-4"/>
    </contour>
  </outline>
</glyph>
<glyph name="Atilde" format="1">
  <advance width="434"/>
  <unicode hex="00C3"/>
  <outline>
    <contour>
      <point x="97" y="755" type="line"/>
      <point x="87" y="757"/>
      <point x="69" y="758"/>
      <point x="53" y="758" type="curve" smooth="yes"/>
      <point x="42" y="758"/>
      <point x="30" y="757"/>
      <point x="17" y="757" type="curve"/>
      <point x="25" y="785"/>
      <point x="51" y="858"/>
      <point x="77" y="886" type="curve" smooth="yes"/>
      <point x="112" y="922"/>
      <point x="169" y="933"/>
      <point x="212" y="905" type="curve" smooth="yes"/>
      <point x="240" y="885"/>
      <point x="258" y="803"/>
      <point x="307" y="817" type="curve"/>
      <point x="349" y="830"/>
      <point x="360" y="876"/>
      <point x="359" y="911" type="curve"/>
      <point x="378" y="912"/>
      <point x="398" y="912"/>
      <point x="418" y="913" type="curve"/>
      <point x="419" y="912" type="line"/>
      <point x="419" y="907"/>
      <point x="420" y="904"/>
      <point x="420" y="899" type="curve" smooth="yes"/>
      <point x="425" y="837"/>
      <point x="391" y="762"/>
      <point x="325" y="751" type="curve" smooth="yes"/>
      <point x="282" y="744"/>
      <point x="239" y="751"/>
      <point x="219" y="814" type="curve"/>
      <point x="205" y="848"/>
      <point x="191" y="857"/>
      <point x="166" y="854" type="curve" smooth="yes"/>
      <point x="126" y="848"/>
      <point x="96" y="813"/>
      <point x="97" y="756" type="curve"/>
    </contour>
    <contour>
      <point x="437" y="1" type="curve"/>
      <point x="437" y="0" type="line"/>
      <point x="408" y="-5"/>
      <point x="385" y="-5"/>
      <point x="371" y="-2" type="curve" smooth="yes"/>
      <point x="363" y="-1"/>
      <point x="355" y="0"/>
      <point x="348" y="2" type="curve"/>
      <point x="347" y="2" type="line"/>
      <point x="331" y="47"/>
      <point x="325" y="93"/>
      <point x="301" y="168" type="curve"/>
      <point x="240" y="171"/>
      <point x="197" y="169"/>
      <point x="138" y="170" type="curve"/>
      <point x="131" y="143"/>
      <point x="116" y="5"/>
      <point x="96" y="1" type="curve"/>
      <point x="87" y="-1"/>
      <point x="64" y="2"/>
      <point x="15" y="1" type="curve"/>
      <point x="4" y="1" type="line"/>
      <point x="4" y="1"/>
      <point x="4" y="1"/>
      <point x="4" y="2" type="curve" smooth="yes"/>
      <point x="12" y="29"/>
      <point x="52" y="387"/>
      <point x="161" y="700" type="curve"/>
      <point x="183" y="703"/>
      <point x="189" y="697"/>
      <point x="280" y="705" type="curve"/>
      <point x="293" y="654"/>
      <point x="346" y="418"/>
      <point x="362" y="351" type="curve" smooth="yes"/>
      <point x="387" y="234"/>
      <point x="411" y="118"/>
    </contour>
    <contour>
      <point x="303" y="249" type="curve"/>
      <point x="265" y="462"/>
      <point x="243" y="568"/>
      <point x="236" y="575" type="curve" smooth="yes"/>
      <point x="198" y="587"/>
      <point x="199" y="582"/>
      <point x="137" y="249" type="curve"/>
      <point x="146" y="248"/>
      <point x="164" y="249"/>
      <point x="189" y="248" type="curve" smooth="yes"/>
      <point x="215" y="248"/>
      <point x="253" y="248"/>
    </contour>
  </outline>
</glyph>
<glyph name="Adieresis" format="1">
  <advance width="434"/>
  <unicode hex="00C4"/>
  <outline>
    <contour>
      <point x="96" y="759" type="curve"/>
      <point x="93" y="759" type="line"/>
      <point x="88" y="785"/>
      <point x="92" y="843"/>
      <point x="92" y="860" type="curve"/>
      <point x="110" y="866"/>
      <point x="158" y="867"/>
      <point x="172" y="861" type="curve"/>
      <point x="172" y="859"/>
      <point x="166" y="788"/>
      <point x="166" y="765" type="curve"/>
      <point x="166" y="760" type="line"/>
      <point x="166" y="758" type="line"/>
      <point x="164" y="758" type="line" smooth="yes"/>
      <point x="141" y="758"/>
      <point x="118" y="759"/>
    </contour>
    <contour>
      <point x="262" y="759" type="curve"/>
      <point x="259" y="759" type="line"/>
      <point x="254" y="785"/>
      <point x="258" y="843"/>
      <point x="258" y="860" type="curve"/>
      <point x="276" y="866"/>
      <point x="324" y="867"/>
      <point x="338" y="861" type="curve"/>
      <point x="338" y="859"/>
      <point x="332" y="777"/>
      <point x="332" y="760" type="curve"/>
      <point x="332" y="759" type="line"/>
      <point x="330" y="758" type="line"/>
      <point x="307" y="758"/>
      <point x="284" y="759"/>
    </contour>
    <contour>
      <point x="437" y="1" type="curve"/>
      <point x="437" y="0" type="line"/>
      <point x="408" y="-5"/>
      <point x="385" y="-5"/>
      <point x="371" y="-2" type="curve" smooth="yes"/>
      <point x="363" y="-1"/>
      <point x="355" y="0"/>
      <point x="348" y="2" type="curve"/>
      <point x="347" y="2" type="line"/>
      <point x="331" y="47"/>
      <point x="325" y="93"/>
      <point x="301" y="168" type="curve"/>
      <point x="240" y="171"/>
      <point x="197" y="169"/>
      <point x="138" y="170" type="curve"/>
      <point x="131" y="143"/>
      <point x="116" y="5"/>
      <point x="96" y="1" type="curve"/>
      <point x="87" y="-1"/>
      <point x="64" y="2"/>
      <point x="15" y="1" type="curve"/>
      <point x="4" y="1" type="line"/>
      <point x="4" y="1"/>
      <point x="4" y="1"/>
      <point x="4" y="2" type="curve" smooth="yes"/>
      <point x="12" y="29"/>
      <point x="52" y="387"/>
      <point x="161" y="700" type="curve"/>
      <point x="183" y="703"/>
      <point x="189" y="697"/>
      <point x="280" y="705" type="curve"/>
      <point x="335" y="464"/>
      <point x="390" y="220"/>
    </contour>
    <contour>
      <point x="303" y="249" type="curve"/>
      <point x="265" y="462"/>
      <point x="243" y="568"/>
      <point x="236" y="575" type="curve" smooth="yes"/>
      <point x="198" y="587"/>
      <point x="199" y="582"/>
      <point x="137" y="249" type="curve"/>
      <point x="146" y="248"/>
      <point x="164" y="249"/>
      <point x="189" y="248" type="curve" smooth="yes"/>
      <point x="215" y="248"/>
      <point x="253" y="248"/>
    </contour>
  </outline>
</glyph>
<glyph name="Ccedilla" format="1">
  <advance width="476"/>
  <unicode hex="00C7"/>
  <outline>
    <contour>
      <point x="41" y="564" type="curve"/>
      <point x="50" y="630"/>
      <point x="85" y="694"/>
      <point x="157" y="703" type="curve" smooth="yes"/>
      <point x="169" y="706"/>
      <point x="182" y="707"/>
      <point x="193" y="708" type="curve" smooth="yes"/>
      <point x="269" y="714"/>
      <point x="337" y="701"/>
      <point x="393" y="649" type="curve" smooth="yes"/>
      <point x="456" y="590"/>
      <point x="475" y="501"/>
      <point x="459" y="414" type="curve"/>
      <point x="450" y="412"/>
      <point x="443" y="411"/>
      <point x="439" y="411" type="curve" smooth="yes"/>
      <point x="416" y="406"/>
      <point x="396" y="409"/>
      <point x="373" y="412" type="curve"/>
      <point x="363" y="412"/>
      <point x="363" y="486"/>
      <point x="358" y="511" type="curve" smooth="yes"/>
      <point x="353" y="546"/>
      <point x="329" y="607"/>
      <point x="229" y="610" type="curve"/>
      <point x="136" y="614"/>
      <point x="122" y="497"/>
      <point x="126" y="354" type="curve" smooth="yes"/>
      <point x="123" y="170"/>
      <point x="143" y="89"/>
      <point x="252" y="87" type="curve"/>
      <point x="289" y="88"/>
      <point x="323" y="105"/>
      <point x="345" y="139" type="curve" smooth="yes"/>
      <point x="368" y="173"/>
      <point x="371" y="221"/>
      <point x="368" y="278" type="curve"/>
      <point x="392" y="279"/>
      <point x="430" y="283"/>
      <point x="455" y="278" type="curve"/>
      <point x="487" y="140"/>
      <point x="415" y="-10"/>
      <point x="262" y="-10" type="curve"/>
      <point x="262" y="-9" type="line"/>
      <point x="255" y="-44"/>
      <point x="242" y="-92"/>
      <point x="236" y="-112" type="curve"/>
      <point x="236" y="-113" type="line"/>
      <point x="213" y="-111"/>
      <point x="187" y="-116"/>
      <point x="167" y="-113" type="curve"/>
      <point x="166" y="-113"/>
      <point x="166" y="-112"/>
      <point x="166" y="-111" type="curve" smooth="yes"/>
      <point x="171" y="-87"/>
      <point x="186" y="-36"/>
      <point x="190" y="-9" type="curve" smooth="yes"/>
      <point x="190" y="-8" type="line"/>
      <point x="62" y="-12"/>
      <point x="38" y="78"/>
      <point x="34" y="198" type="curve" smooth="yes"/>
      <point x="34" y="203" type="line" smooth="yes"/>
      <point x="31" y="288"/>
      <point x="31" y="388"/>
      <point x="34" y="514" type="curve" smooth="yes"/>
      <point x="36" y="537"/>
      <point x="38" y="553"/>
    </contour>
  </outline>
</glyph>
<glyph name="Iacute" format="1">
  <advance width="259"/>
  <unicode hex="00CD"/>
  <outline>
    <contour>
      <point x="188" y="703" type="curve"/>
      <point x="188" y="699" type="line" smooth="yes"/>
      <point x="187" y="469"/>
      <point x="177" y="234"/>
      <point x="187" y="3" type="curve"/>
      <point x="169" y="-10"/>
      <point x="94" y="2"/>
      <point x="67" y="-4" type="curve"/>
      <point x="71" y="81"/>
      <point x="72" y="175"/>
      <point x="70" y="274" type="curve"/>
      <point x="69" y="374"/>
      <point x="67" y="461"/>
      <point x="66" y="534" type="curve" smooth="yes"/>
      <point x="66" y="592"/>
      <point x="69" y="650"/>
      <point x="75" y="706" type="curve" smooth="yes"/>
      <point x="75" y="708" type="line"/>
      <point x="113" y="711"/>
      <point x="116" y="704"/>
    </contour>
    <contour>
      <point x="296" y="858" type="curve"/>
      <point x="279" y="876"/>
      <point x="262" y="894"/>
      <point x="245" y="911" type="curve"/>
      <point x="205" y="876"/>
      <point x="132" y="796"/>
      <point x="85" y="753" type="curve"/>
      <point x="99" y="749"/>
      <point x="145" y="745"/>
      <point x="185" y="750" type="curve"/>
      <point x="193" y="764"/>
      <point x="287" y="853"/>
    </contour>
  </outline>
</glyph>
<glyph name="Idieresis" format="1">
  <advance width="260"/>
  <unicode hex="00CF"/>
  <outline>
    <contour>
      <point x="188" y="703" type="curve"/>
      <point x="188" y="699" type="line" smooth="yes"/>
      <point x="187" y="469"/>
      <point x="177" y="234"/>
      <point x="187" y="3" type="curve"/>
      <point x="169" y="-10"/>
      <point x="94" y="2"/>
      <point x="67" y="-4" type="curve"/>
      <point x="71" y="81"/>
      <point x="72" y="175"/>
      <point x="70" y="274" type="curve" smooth="yes"/>
      <point x="69" y="374"/>
      <point x="67" y="461"/>
      <point x="66" y="534" type="curve" smooth="yes"/>
      <point x="66" y="592"/>
      <point x="69" y="650"/>
      <point x="75" y="706" type="curve" smooth="yes"/>
      <point x="75" y="708" type="line"/>
      <point x="113" y="711"/>
      <point x="116" y="704"/>
    </contour>
    <contour>
      <point x="20" y="759" type="curve"/>
      <point x="17" y="759" type="line"/>
      <point x="12" y="785"/>
      <point x="16" y="843"/>
      <point x="16" y="860" type="curve"/>
      <point x="34" y="866"/>
      <point x="82" y="867"/>
      <point x="96" y="861" type="curve"/>
      <point x="96" y="859"/>
      <point x="90" y="777"/>
      <point x="90" y="760" type="curve"/>
      <point x="90" y="759" type="line"/>
      <point x="88" y="758" type="line"/>
      <point x="65" y="758"/>
      <point x="42" y="759"/>
    </contour>
    <contour>
      <point x="186" y="759" type="curve"/>
      <point x="183" y="759" type="line"/>
      <point x="178" y="785"/>
      <point x="182" y="843"/>
      <point x="182" y="860" type="curve"/>
      <point x="200" y="866"/>
      <point x="248" y="867"/>
      <point x="262" y="861" type="curve"/>
      <point x="262" y="859"/>
      <point x="256" y="778"/>
      <point x="256" y="760" type="curve"/>
      <point x="256" y="759" type="line"/>
      <point x="254" y="758" type="line"/>
      <point x="231" y="758"/>
      <point x="208" y="759"/>
    </contour>
  </outline>
</glyph>
<glyph name="Oacute" format="1">
  <advance width="485"/>
  <unicode hex="00D3"/>
  <outline>
    <contour>
      <point x="390" y="857" type="curve"/>
      <point x="373" y="875"/>
      <point x="355" y="893"/>
      <point x="338" y="910" type="curve"/>
      <point x="298" y="875"/>
      <point x="226" y="795"/>
      <point x="179" y="752" type="curve"/>
      <point x="192" y="748"/>
      <point x="238" y="744"/>
      <point x="278" y="749" type="curve"/>
      <point x="286" y="763"/>
      <point x="381" y="852"/>
    </contour>
    <contour>
      <point x="437" y="594" type="curve"/>
      <point x="459" y="546"/>
      <point x="457" y="486"/>
      <point x="455" y="433" type="curve" smooth="yes"/>
      <point x="452" y="362"/>
      <point x="455" y="297"/>
      <point x="450" y="228" type="curve" smooth="yes"/>
      <point x="447" y="195" type="line" smooth="yes"/>
      <point x="444" y="148"/>
      <point x="434" y="99"/>
      <point x="409" y="60" type="curve"/>
      <point x="367" y="2"/>
      <point x="269" y="-17"/>
      <point x="192" y="-11" type="curve"/>
      <point x="98" y="-2"/>
      <point x="40" y="38"/>
      <point x="36" y="170" type="curve" smooth="yes"/>
      <point x="33" y="274"/>
      <point x="24" y="379"/>
      <point x="31" y="484" type="curve"/>
      <point x="32" y="547"/>
      <point x="46" y="639"/>
      <point x="107" y="673" type="curve"/>
      <point x="212" y="724"/>
      <point x="395" y="715"/>
    </contour>
    <contour>
      <point x="368" y="430" type="curve" smooth="yes"/>
      <point x="367" y="467"/>
      <point x="379" y="607"/>
      <point x="253" y="615" type="curve"/>
      <point x="134" y="621"/>
      <point x="104" y="516"/>
      <point x="105" y="327" type="curve"/>
      <point x="108" y="184"/>
      <point x="114" y="124"/>
      <point x="158" y="93" type="curve" smooth="yes"/>
      <point x="175" y="81"/>
      <point x="201" y="75"/>
      <point x="234" y="76" type="curve" smooth="yes"/>
      <point x="327" y="79"/>
      <point x="360" y="122"/>
      <point x="364" y="191" type="curve"/>
      <point x="364" y="238"/>
      <point x="369" y="316"/>
      <point x="369" y="314" type="curve" smooth="yes"/>
      <point x="369" y="349" type="line" smooth="yes"/>
      <point x="369" y="376"/>
      <point x="368" y="403"/>
    </contour>
  </outline>
</glyph>
<glyph name="Otilde" format="1">
  <advance width="484"/>
  <unicode hex="00D5"/>
  <outline>
    <contour>
      <point x="437" y="594" type="curve"/>
      <point x="459" y="546"/>
      <point x="457" y="486"/>
      <point x="455" y="433" type="curve" smooth="yes"/>
      <point x="451" y="362"/>
      <point x="454" y="297"/>
      <point x="450" y="228" type="curve"/>
      <point x="447" y="195" type="line" smooth="yes"/>
      <point x="443" y="148"/>
      <point x="433" y="99"/>
      <point x="409" y="60" type="curve"/>
      <point x="366" y="2"/>
      <point x="268" y="-17"/>
      <point x="192" y="-11" type="curve" smooth="yes"/>
      <point x="97" y="-2"/>
      <point x="39" y="38"/>
      <point x="36" y="170" type="curve" smooth="yes"/>
      <point x="32" y="274"/>
      <point x="23" y="379"/>
      <point x="31" y="484" type="curve"/>
      <point x="32" y="547"/>
      <point x="46" y="639"/>
      <point x="107" y="673" type="curve"/>
      <point x="212" y="724"/>
      <point x="395" y="715"/>
    </contour>
    <contour>
      <point x="368" y="430" type="curve" smooth="yes"/>
      <point x="366" y="467"/>
      <point x="378" y="607"/>
      <point x="253" y="615" type="curve"/>
      <point x="134" y="621"/>
      <point x="103" y="516"/>
      <point x="105" y="327" type="curve" smooth="yes"/>
      <point x="107" y="184"/>
      <point x="113" y="124"/>
      <point x="157" y="93" type="curve" smooth="yes"/>
      <point x="175" y="81"/>
      <point x="201" y="75"/>
      <point x="234" y="76" type="curve" smooth="yes"/>
      <point x="327" y="79"/>
      <point x="360" y="122"/>
      <point x="364" y="191" type="curve" smooth="yes"/>
      <point x="364" y="238"/>
      <point x="369" y="316"/>
      <point x="369" y="314" type="curve" smooth="yes"/>
      <point x="369" y="349" type="line" smooth="yes"/>
      <point x="369" y="376"/>
      <point x="368" y="403"/>
    </contour>
    <contour>
      <point x="118" y="744" type="line"/>
      <point x="107" y="745"/>
      <point x="90" y="746"/>
      <point x="73" y="746" type="curve" smooth="yes"/>
      <point x="62" y="746"/>
      <point x="51" y="746"/>
      <point x="37" y="745" type="curve"/>
      <point x="45" y="774"/>
      <point x="72" y="847"/>
      <point x="97" y="874" type="curve" smooth="yes"/>
      <point x="133" y="910"/>
      <point x="190" y="922"/>
      <point x="232" y="893" type="curve" smooth="yes"/>
      <point x="260" y="873"/>
      <point x="278" y="791"/>
      <point x="327" y="805" type="curve"/>
      <point x="369" y="818"/>
      <point x="380" y="865"/>
      <point x="379" y="899" type="curve"/>
      <point x="399" y="901"/>
      <point x="419" y="901"/>
      <point x="439" y="901" type="curve"/>
      <point x="439" y="900" type="line"/>
      <point x="439" y="900"/>
      <point x="439" y="900"/>
      <point x="440" y="900" type="curve"/>
      <point x="451" y="837"/>
      <point x="413" y="756"/>
      <point x="355" y="742" type="curve" smooth="yes"/>
      <point x="311" y="731"/>
      <point x="260" y="737"/>
      <point x="240" y="803" type="curve"/>
      <point x="227" y="833"/>
      <point x="213" y="843"/>
      <point x="193" y="843" type="curve" smooth="yes"/>
      <point x="146" y="843"/>
      <point x="117" y="802"/>
      <point x="118" y="745" type="curve"/>
    </contour>
  </outline>
</glyph>
<glyph name="Uacute" format="1">
  <advance width="505"/>
  <unicode hex="00DA"/>
  <outline>
    <contour>
      <point x="469" y="669" type="curve"/>
      <point x="472" y="605"/>
      <point x="474" y="540"/>
      <point x="474" y="476" type="curve" smooth="yes"/>
      <point x="474" y="368"/>
      <point x="470" y="258"/>
      <point x="457" y="151" type="curve" smooth="yes"/>
      <point x="445" y="50"/>
      <point x="375" y="-16"/>
      <point x="261" y="-16" type="curve" smooth="yes"/>
      <point x="152" y="-16"/>
      <point x="45" y="36"/>
      <point x="40" y="157" type="curve" smooth="yes"/>
      <point x="38" y="194"/>
      <point x="38" y="233"/>
      <point x="38" y="272" type="curve" smooth="yes"/>
      <point x="38" y="365"/>
      <point x="42" y="465"/>
      <point x="42" y="561" type="curve" smooth="yes"/>
      <point x="42" y="600"/>
      <point x="41" y="640"/>
      <point x="41" y="679" type="curve"/>
      <point x="40" y="680" type="line"/>
      <point x="41" y="680" type="line"/>
      <point x="55" y="680"/>
      <point x="72" y="681"/>
      <point x="89" y="681" type="curve" smooth="yes"/>
      <point x="106" y="681"/>
      <point x="123" y="680"/>
      <point x="138" y="677" type="curve"/>
      <point x="132" y="571"/>
      <point x="133" y="485"/>
      <point x="133" y="415" type="curve" smooth="yes"/>
      <point x="133" y="236"/>
      <point x="139" y="85"/>
      <point x="250" y="85" type="curve" smooth="yes"/>
      <point x="284" y="85"/>
      <point x="315" y="99"/>
      <point x="332" y="127" type="curve"/>
      <point x="366" y="204"/>
      <point x="371" y="322"/>
      <point x="371" y="445" type="curve" smooth="yes"/>
      <point x="371" y="496"/>
      <point x="370" y="547"/>
      <point x="370" y="597" type="curve" smooth="yes"/>
      <point x="370" y="622"/>
      <point x="370" y="647"/>
      <point x="371" y="671" type="curve"/>
      <point x="389" y="673"/>
      <point x="412" y="676"/>
      <point x="432" y="676" type="curve" smooth="yes"/>
      <point x="447" y="676"/>
      <point x="460" y="674"/>
    </contour>
    <contour>
      <point x="410" y="858" type="curve"/>
      <point x="393" y="876"/>
      <point x="376" y="894"/>
      <point x="359" y="911" type="curve"/>
      <point x="319" y="876"/>
      <point x="246" y="796"/>
      <point x="199" y="753" type="curve"/>
      <point x="213" y="749"/>
      <point x="259" y="745"/>
      <point x="299" y="750" type="curve"/>
      <point x="307" y="764"/>
      <point x="401" y="853"/>
    </contour>
  </outline>
</glyph>
<glyph name="Udieresis" format="1">
  <advance width="505"/>
  <unicode hex="00DC"/>
  <outline>
    <contour>
      <point x="136" y="759" type="curve"/>
      <point x="133" y="759" type="line"/>
      <point x="128" y="785"/>
      <point x="132" y="843"/>
      <point x="132" y="860" type="curve"/>
      <point x="150" y="866"/>
      <point x="198" y="867"/>
      <point x="212" y="861" type="curve"/>
      <point x="212" y="859"/>
      <point x="206" y="777"/>
      <point x="206" y="760" type="curve"/>
      <point x="206" y="759" type="line"/>
      <point x="204" y="758" type="line"/>
      <point x="181" y="758"/>
      <point x="158" y="759"/>
    </contour>
    <contour>
      <point x="302" y="759" type="curve"/>
      <point x="299" y="759" type="line"/>
      <point x="294" y="785"/>
      <point x="298" y="843"/>
      <point x="298" y="860" type="curve"/>
      <point x="316" y="866"/>
      <point x="364" y="867"/>
      <point x="378" y="861" type="curve"/>
      <point x="378" y="859"/>
      <point x="372" y="777"/>
      <point x="372" y="760" type="curve"/>
      <point x="372" y="759" type="line"/>
      <point x="370" y="758" type="line"/>
      <point x="347" y="758"/>
      <point x="324" y="759"/>
    </contour>
    <contour>
      <point x="469" y="669" type="curve"/>
      <point x="477" y="498"/>
      <point x="476" y="323"/>
      <point x="457" y="151" type="curve" smooth="yes"/>
      <point x="446" y="63"/>
      <point x="388" y="-5"/>
      <point x="293" y="-14" type="curve" smooth="yes"/>
      <point x="174" y="-25"/>
      <point x="46" y="24"/>
      <point x="40" y="157" type="curve"/>
      <point x="38" y="238"/>
      <point x="38" y="324"/>
      <point x="40" y="413" type="curve" smooth="yes"/>
      <point x="41" y="502"/>
      <point x="42" y="591"/>
      <point x="41" y="679" type="curve"/>
      <point x="40" y="680" type="line"/>
      <point x="41" y="680" type="line"/>
      <point x="70" y="680"/>
      <point x="109" y="683"/>
      <point x="138" y="677" type="curve"/>
      <point x="137" y="658"/>
      <point x="137" y="640"/>
      <point x="137" y="623" type="curve"/>
      <point x="130" y="354"/>
      <point x="129" y="234"/>
      <point x="170" y="124" type="curve"/>
      <point x="181" y="107"/>
      <point x="196" y="96"/>
      <point x="215" y="90" type="curve" smooth="yes"/>
      <point x="252" y="79"/>
      <point x="292" y="88"/>
      <point x="311" y="114" type="curve"/>
      <point x="393" y="226"/>
      <point x="366" y="472"/>
      <point x="371" y="671" type="curve"/>
      <point x="394" y="673"/>
      <point x="440" y="680"/>
      <point x="460" y="671" type="curve"/>
      <point x="464" y="671"/>
      <point x="467" y="670"/>
    </contour>
  </outline>
</glyph>
<glyph name="agrave" format="1">
  <advance width="476"/>
  <unicode hex="00E0"/>
  <outline>
    <contour>
      <point x="439" y="498" type="curve"/>
      <point x="440" y="490"/>
      <point x="441" y="482"/>
      <point x="441" y="474" type="curve" smooth="yes"/>
      <point x="441" y="464" type="line" smooth="yes"/>
      <point x="437" y="320"/>
      <point x="448" y="183"/>
      <point x="439" y="40" type="curve"/>
      <point x="439" y="23"/>
      <point x="442" y="2"/>
      <point x="426" y="-1" type="curve"/>
      <point x="409" y="-1" type="line" smooth="yes"/>
      <point x="399" y="-1"/>
      <point x="387" y="0"/>
      <point x="377" y="0" type="curve" smooth="yes"/>
      <point x="367" y="0"/>
      <point x="359" y="-2"/>
      <point x="352" y="-2" type="curve"/>
      <point x="345" y="0"/>
      <point x="342" y="9"/>
      <point x="342" y="20" type="curve" smooth="yes"/>
      <point x="341" y="33"/>
      <point x="344" y="44"/>
      <point x="344" y="55" type="curve"/>
      <point x="307" y="5"/>
      <point x="210" y="-2"/>
      <point x="166" y="-2" type="curve" smooth="yes"/>
      <point x="63" y="-2"/>
      <point x="19" y="159"/>
      <point x="19" y="266" type="curve" smooth="yes"/>
      <point x="19" y="399"/>
      <point x="93" y="494"/>
      <point x="187" y="497" type="curve"/>
      <point x="254" y="500"/>
      <point x="313" y="497"/>
      <point x="337" y="449" type="curve"/>
      <point x="338" y="468"/>
      <point x="341" y="484"/>
      <point x="341" y="500" type="curve" smooth="yes"/>
      <point x="341" y="501"/>
      <point x="347" y="502"/>
      <point x="354" y="502" type="curve" smooth="yes"/>
      <point x="383" y="503"/>
      <point x="396" y="501"/>
    </contour>
    <contour>
      <point x="111" y="320" type="curve"/>
      <point x="104" y="295"/>
      <point x="103" y="267"/>
      <point x="103" y="242" type="curve" smooth="yes"/>
      <point x="106" y="148"/>
      <point x="140" y="83"/>
      <point x="233" y="88" type="curve" smooth="yes"/>
      <point x="338" y="87"/>
      <point x="341" y="145"/>
      <point x="341" y="256" type="curve" smooth="yes"/>
      <point x="341" y="391"/>
      <point x="332" y="406"/>
      <point x="242" y="412" type="curve" smooth="yes"/>
      <point x="168" y="414"/>
      <point x="121" y="366"/>
    </contour>
    <contour>
      <point x="176" y="748" type="curve"/>
      <point x="215" y="712"/>
      <point x="289" y="633"/>
      <point x="335" y="589" type="curve"/>
      <point x="321" y="585"/>
      <point x="275" y="582"/>
      <point x="236" y="586" type="curve"/>
      <point x="229" y="597"/>
      <point x="133" y="690"/>
      <point x="124" y="695" type="curve"/>
      <point x="141" y="712"/>
      <point x="159" y="730"/>
    </contour>
  </outline>
</glyph>
<glyph name="acircumflex" format="1">
  <advance width="476"/>
  <unicode hex="00E2"/>
  <outline>
    <contour>
      <point x="414" y="595" type="curve" smooth="yes"/>
      <point x="411" y="597"/>
      <point x="379" y="588"/>
      <point x="334" y="590" type="curve"/>
      <point x="330" y="590"/>
      <point x="319" y="601"/>
      <point x="301" y="619" type="curve"/>
      <point x="278" y="641" type="line"/>
      <point x="269" y="653"/>
      <point x="257" y="665"/>
      <point x="252" y="668" type="curve"/>
      <point x="245" y="665"/>
      <point x="194" y="598"/>
      <point x="174" y="592" type="curve"/>
      <point x="156" y="590"/>
      <point x="156" y="591"/>
      <point x="91" y="594" type="curve"/>
      <point x="145" y="662"/>
      <point x="191" y="699"/>
      <point x="252" y="756" type="curve"/>
      <point x="306" y="702"/>
      <point x="360" y="649"/>
    </contour>
    <contour>
      <point x="439" y="498" type="curve"/>
      <point x="440" y="490"/>
      <point x="441" y="482"/>
      <point x="441" y="474" type="curve" smooth="yes"/>
      <point x="441" y="464" type="line" smooth="yes"/>
      <point x="437" y="320"/>
      <point x="448" y="183"/>
      <point x="439" y="40" type="curve"/>
      <point x="439" y="23"/>
      <point x="442" y="2"/>
      <point x="426" y="-1" type="curve"/>
      <point x="409" y="-1" type="line" smooth="yes"/>
      <point x="399" y="-1"/>
      <point x="387" y="0"/>
      <point x="377" y="0" type="curve" smooth="yes"/>
      <point x="367" y="0"/>
      <point x="359" y="-2"/>
      <point x="352" y="-2" type="curve"/>
      <point x="345" y="0"/>
      <point x="342" y="9"/>
      <point x="342" y="20" type="curve" smooth="yes"/>
      <point x="341" y="33"/>
      <point x="344" y="44"/>
      <point x="344" y="55" type="curve"/>
      <point x="307" y="5"/>
      <point x="210" y="-2"/>
      <point x="166" y="-2" type="curve" smooth="yes"/>
      <point x="63" y="-2"/>
      <point x="19" y="159"/>
      <point x="19" y="266" type="curve" smooth="yes"/>
      <point x="19" y="399"/>
      <point x="93" y="494"/>
      <point x="187" y="497" type="curve"/>
      <point x="254" y="500"/>
      <point x="313" y="497"/>
      <point x="337" y="449" type="curve"/>
      <point x="338" y="468"/>
      <point x="341" y="484"/>
      <point x="341" y="500" type="curve" smooth="yes"/>
      <point x="341" y="501"/>
      <point x="347" y="502"/>
      <point x="354" y="502" type="curve" smooth="yes"/>
      <point x="383" y="503"/>
      <point x="396" y="501"/>
    </contour>
    <contour>
      <point x="111" y="320" type="curve"/>
      <point x="104" y="295"/>
      <point x="103" y="267"/>
      <point x="103" y="242" type="curve" smooth="yes"/>
      <point x="106" y="148"/>
      <point x="140" y="83"/>
      <point x="233" y="88" type="curve" smooth="yes"/>
      <point x="338" y="87"/>
      <point x="341" y="145"/>
      <point x="341" y="256" type="curve" smooth="yes"/>
      <point x="341" y="391"/>
      <point x="332" y="406"/>
      <point x="242" y="412" type="curve" smooth="yes"/>
      <point x="168" y="414"/>
      <point x="121" y="366"/>
    </contour>
  </outline>
</glyph>
<glyph name="ccedilla" format="1">
  <advance width="443"/>
  <unicode hex="00E7"/>
  <outline>
    <contour>
      <point x="421" y="192" type="curve"/>
      <point x="411" y="83"/>
      <point x="414" y="-3"/>
      <point x="301" y="-11" type="curve" smooth="yes"/>
      <point x="286" y="-12"/>
      <point x="274" y="-12"/>
      <point x="257" y="-11" type="curve"/>
      <point x="248" y="-50"/>
      <point x="227" y="-106"/>
      <point x="220" y="-144" type="curve"/>
      <point x="150" y="-144" type="line"/>
      <point x="150" y="-143" type="line"/>
      <point x="170" y="-97"/>
      <point x="176" y="-75"/>
      <point x="193" y="-11" type="curve"/>
      <point x="153" y="-9" type="line"/>
      <point x="119" y="-3"/>
      <point x="98" y="12"/>
      <point x="75" y="35" type="curve"/>
      <point x="39" y="67"/>
      <point x="29" y="118"/>
      <point x="26" y="170" type="curve" smooth="yes"/>
      <point x="25" y="197"/>
      <point x="24" y="218"/>
      <point x="23" y="233" type="curve"/>
      <point x="23" y="323" type="line" smooth="yes"/>
      <point x="23" y="347"/>
      <point x="25" y="371"/>
      <point x="29" y="395" type="curve"/>
      <point x="30" y="410"/>
      <point x="41" y="441"/>
      <point x="45" y="454" type="curve"/>
      <point x="75" y="518"/>
      <point x="203" y="514"/>
      <point x="273" y="511" type="curve"/>
      <point x="316" y="508"/>
      <point x="349" y="500"/>
      <point x="384" y="469" type="curve"/>
      <point x="413" y="444"/>
      <point x="420" y="377"/>
      <point x="423" y="289" type="curve"/>
      <point x="406" y="285"/>
      <point x="368" y="284"/>
      <point x="351" y="287" type="curve"/>
      <point x="353" y="390"/>
      <point x="328" y="416"/>
      <point x="283" y="429" type="curve" smooth="yes"/>
      <point x="237" y="442"/>
      <point x="139" y="442"/>
      <point x="115" y="401" type="curve" smooth="yes"/>
      <point x="108" y="388"/>
      <point x="107" y="365"/>
      <point x="102" y="332" type="curve" smooth="yes"/>
      <point x="98" y="304"/>
      <point x="90" y="194"/>
      <point x="107" y="127" type="curve" smooth="yes"/>
      <point x="118" y="83"/>
      <point x="135" y="67"/>
      <point x="202" y="62" type="curve" smooth="yes"/>
      <point x="270" y="57"/>
      <point x="297" y="59"/>
      <point x="320" y="81" type="curve" smooth="yes"/>
      <point x="344" y="103"/>
      <point x="343" y="136"/>
      <point x="344" y="168" type="curve" smooth="yes"/>
      <point x="345" y="201"/>
      <point x="348" y="183"/>
      <point x="347" y="194" type="curve"/>
      <point x="366" y="187"/>
      <point x="406" y="196"/>
    </contour>
  </outline>
</glyph>
<glyph name="ecircumflex" format="1">
  <advance width="444"/>
  <unicode hex="00EA"/>
  <outline>
    <contour>
      <point x="397" y="596" type="curve" smooth="yes"/>
      <point x="394" y="598"/>
      <point x="361" y="589"/>
      <point x="317" y="591" type="curve"/>
      <point x="313" y="591"/>
      <point x="301" y="602"/>
      <point x="283" y="620" type="curve"/>
      <point x="261" y="642" type="line"/>
      <point x="251" y="654"/>
      <point x="240" y="666"/>
      <point x="234" y="669" type="curve"/>
      <point x="227" y="666"/>
      <point x="177" y="599"/>
      <point x="156" y="593" type="curve"/>
      <point x="138" y="591"/>
      <point x="138" y="592"/>
      <point x="74" y="595" type="curve"/>
      <point x="128" y="663"/>
      <point x="173" y="700"/>
      <point x="235" y="757" type="curve"/>
      <point x="289" y="703"/>
      <point x="343" y="650"/>
    </contour>
    <contour>
      <point x="110" y="235" type="line"/>
      <point x="110" y="212"/>
      <point x="92" y="93"/>
      <point x="212" y="83" type="curve" smooth="yes"/>
      <point x="306" y="75"/>
      <point x="334" y="123"/>
      <point x="325" y="188" type="curve"/>
      <point x="360" y="194"/>
      <point x="390" y="189"/>
      <point x="422" y="190" type="curve"/>
      <point x="423" y="124"/>
      <point x="421" y="79"/>
      <point x="394" y="34" type="curve"/>
      <point x="351" y="-32"/>
      <point x="176" y="-15"/>
      <point x="164" y="-10" type="curve"/>
      <point x="51" y="8"/>
      <point x="15" y="154"/>
      <point x="21" y="284" type="curve"/>
      <point x="25" y="333"/>
      <point x="27" y="379"/>
      <point x="43" y="423" type="curve"/>
      <point x="78" y="502"/>
      <point x="195" y="531"/>
      <point x="290" y="507" type="curve"/>
      <point x="414" y="486"/>
      <point x="432" y="371"/>
      <point x="424" y="259" type="curve"/>
      <point x="412" y="255"/>
      <point x="364" y="251"/>
      <point x="312" y="249" type="curve" smooth="yes"/>
      <point x="276" y="247"/>
      <point x="175" y="249"/>
      <point x="147" y="250" type="curve" smooth="yes"/>
      <point x="130" y="250"/>
      <point x="118" y="251"/>
      <point x="110" y="253" type="curve"/>
    </contour>
    <contour>
      <point x="296" y="436" type="curve"/>
      <point x="276" y="445"/>
      <point x="265" y="447"/>
      <point x="242" y="447" type="curve" smooth="yes"/>
      <point x="148" y="447"/>
      <point x="123" y="402"/>
      <point x="115" y="343" type="curve" smooth="yes"/>
      <point x="110" y="306"/>
      <point x="110" y="305"/>
      <point x="237" y="308" type="curve"/>
      <point x="308" y="308"/>
      <point x="333" y="308"/>
      <point x="345" y="309" type="curve" smooth="yes"/>
      <point x="356" y="310"/>
      <point x="353" y="315"/>
      <point x="353" y="328" type="curve" smooth="yes"/>
      <point x="352" y="367"/>
      <point x="334" y="412"/>
    </contour>
  </outline>
</glyph>
<glyph name="edieresis" format="1">
  <advance width="444"/>
  <unicode hex="00EB"/>
  <outline>
    <contour>
      <point x="186" y="755" type="curve"/>
      <point x="186" y="748"/>
      <point x="185" y="686"/>
      <point x="185" y="658" type="curve" smooth="yes"/>
      <point x="185" y="640" type="line"/>
      <point x="183" y="637"/>
      <point x="179" y="636"/>
      <point x="174" y="636" type="curve" smooth="yes"/>
      <point x="153" y="633"/>
      <point x="121" y="638"/>
      <point x="95" y="637" type="curve"/>
      <point x="94" y="665"/>
      <point x="89" y="714"/>
      <point x="92" y="750" type="curve"/>
      <point x="104" y="755"/>
      <point x="119" y="757"/>
      <point x="142" y="757" type="curve" smooth="yes"/>
      <point x="158" y="756"/>
      <point x="173" y="757"/>
    </contour>
    <contour>
      <point x="357" y="755" type="curve"/>
      <point x="357" y="748"/>
      <point x="356" y="686"/>
      <point x="356" y="658" type="curve" smooth="yes"/>
      <point x="356" y="640" type="line"/>
      <point x="354" y="637"/>
      <point x="350" y="636"/>
      <point x="345" y="636" type="curve" smooth="yes"/>
      <point x="324" y="633"/>
      <point x="293" y="638"/>
      <point x="267" y="636" type="curve"/>
      <point x="266" y="636" type="line"/>
      <point x="264" y="665"/>
      <point x="260" y="714"/>
      <point x="263" y="750" type="curve"/>
      <point x="275" y="755"/>
      <point x="290" y="757"/>
      <point x="313" y="757" type="curve" smooth="yes"/>
      <point x="329" y="757"/>
      <point x="344" y="756"/>
    </contour>
    <contour>
      <point x="110" y="235" type="line"/>
      <point x="110" y="212"/>
      <point x="92" y="93"/>
      <point x="212" y="83" type="curve" smooth="yes"/>
      <point x="306" y="75"/>
      <point x="334" y="123"/>
      <point x="325" y="188" type="curve"/>
      <point x="360" y="194"/>
      <point x="390" y="189"/>
      <point x="422" y="190" type="curve"/>
      <point x="423" y="124"/>
      <point x="421" y="79"/>
      <point x="394" y="34" type="curve"/>
      <point x="351" y="-32"/>
      <point x="176" y="-15"/>
      <point x="164" y="-10" type="curve"/>
      <point x="51" y="8"/>
      <point x="15" y="154"/>
      <point x="21" y="284" type="curve"/>
      <point x="25" y="333"/>
      <point x="27" y="379"/>
      <point x="43" y="423" type="curve"/>
      <point x="78" y="502"/>
      <point x="195" y="531"/>
      <point x="290" y="507" type="curve"/>
      <point x="414" y="486"/>
      <point x="432" y="371"/>
      <point x="424" y="259" type="curve"/>
      <point x="412" y="255"/>
      <point x="364" y="251"/>
      <point x="312" y="249" type="curve" smooth="yes"/>
      <point x="276" y="247"/>
      <point x="175" y="249"/>
      <point x="147" y="250" type="curve" smooth="yes"/>
      <point x="130" y="250"/>
      <point x="118" y="251"/>
      <point x="110" y="253" type="curve"/>
    </contour>
    <contour>
      <point x="296" y="436" type="curve"/>
      <point x="276" y="445"/>
      <point x="265" y="447"/>
      <point x="242" y="447" type="curve" smooth="yes"/>
      <point x="148" y="447"/>
      <point x="123" y="402"/>
      <point x="115" y="343" type="curve" smooth="yes"/>
      <point x="110" y="306"/>
      <point x="110" y="305"/>
      <point x="237" y="308" type="curve"/>
      <point x="308" y="308"/>
      <point x="333" y="308"/>
      <point x="345" y="309" type="curve" smooth="yes"/>
      <point x="356" y="310"/>
      <point x="353" y="315"/>
      <point x="353" y="328" type="curve" smooth="yes"/>
      <point x="352" y="367"/>
      <point x="334" y="412"/>
    </contour>
  </outline>
</glyph>
<glyph name="thorn" format="1">
  <advance width="470"/>
  <unicode hex="00FE"/>
  <outline>
    <contour>
      <point x="132" y="79" type="curve"/>
      <point x="134" y="38"/>
      <point x="135" y="-5"/>
      <point x="134" y="-54" type="curve" smooth="yes"/>
      <point x="134" y="-122"/>
      <point x="134" y="-142"/>
      <point x="135" y="-170" type="curve"/>
      <point x="123" y="-177"/>
      <point x="55" y="-170"/>
      <point x="32" y="-174" type="curve"/>
      <point x="34" y="-41"/>
      <point x="34" y="71"/>
      <point x="34" y="154" type="curve" smooth="yes"/>
      <point x="35" y="346"/>
      <point x="37" y="544"/>
      <point x="41" y="715" type="curve"/>
      <point x="74" y="716"/>
      <point x="112" y="714"/>
      <point x="135" y="713" type="curve"/>
      <point x="135" y="683" type="line"/>
      <point x="136" y="663"/>
      <point x="136" y="660"/>
      <point x="136" y="649" type="curve"/>
      <point x="137" y="633"/>
      <point x="136" y="605"/>
      <point x="136" y="581" type="curve" smooth="yes"/>
      <point x="136" y="548"/>
      <point x="136" y="500"/>
      <point x="135" y="438" type="curve"/>
      <point x="146" y="467"/>
      <point x="187" y="500"/>
      <point x="248" y="500" type="curve"/>
      <point x="391" y="498"/>
      <point x="447" y="427"/>
      <point x="447" y="275" type="curve" smooth="yes"/>
      <point x="445" y="168"/>
      <point x="419" y="33"/>
      <point x="327" y="11" type="curve" smooth="yes"/>
      <point x="299" y="1"/>
      <point x="265" y="0"/>
      <point x="220" y="7" type="curve" smooth="yes"/>
      <point x="182" y="14"/>
      <point x="150" y="37"/>
    </contour>
    <contour>
      <point x="358" y="286" type="curve" smooth="yes"/>
      <point x="352" y="338"/>
      <point x="348" y="407"/>
      <point x="226" y="407" type="curve" smooth="yes"/>
      <point x="147" y="407"/>
      <point x="135" y="347"/>
      <point x="135" y="250" type="curve" smooth="yes"/>
      <point x="135" y="174"/>
      <point x="157" y="90"/>
      <point x="237" y="90" type="curve" smooth="yes"/>
      <point x="318" y="90"/>
      <point x="362" y="135"/>
      <point x="362" y="239" type="curve" smooth="yes"/>
      <point x="362" y="254"/>
      <point x="361" y="270"/>
    </contour>
  </outline>
</glyph>
<glyph name="OE" format="1">
  <advance width="830"/>
  <unicode hex="0152"/>
  <outline>
    <contour>
      <point x="808" y="98" type="line"/>
      <point x="806" y="3" type="line"/>
      <point x="670" y="4"/>
      <point x="550" y="-6"/>
      <point x="421" y="5" type="curve"/>
      <point x="421" y="30"/>
      <point x="421" y="54"/>
      <point x="420" y="79" type="curve"/>
      <point x="417" y="72"/>
      <point x="413" y="65"/>
      <point x="409" y="58" type="curve"/>
      <point x="386" y="26"/>
      <point x="347" y="8"/>
      <point x="306" y="-3" type="curve" smooth="yes"/>
      <point x="269" y="-14"/>
      <point x="231" y="-16"/>
      <point x="192" y="-13" type="curve" smooth="yes"/>
      <point x="137" y="-8"/>
      <point x="84" y="4"/>
      <point x="60" y="57" type="curve"/>
      <point x="41" y="90"/>
      <point x="37" y="129"/>
      <point x="36" y="168" type="curve" smooth="yes"/>
      <point x="32" y="272"/>
      <point x="24" y="377"/>
      <point x="31" y="482" type="curve"/>
      <point x="32" y="542"/>
      <point x="43" y="606"/>
      <point x="84" y="653" type="curve" smooth="yes"/>
      <point x="91" y="660"/>
      <point x="98" y="666"/>
      <point x="107" y="671" type="curve" smooth="yes"/>
      <point x="195" y="714"/>
      <point x="319" y="712"/>
      <point x="396" y="653" type="curve"/>
      <point x="405" y="645"/>
      <point x="412" y="636"/>
      <point x="418" y="627" type="curve"/>
      <point x="419" y="648"/>
      <point x="421" y="668"/>
      <point x="422" y="689" type="curve"/>
      <point x="448" y="690"/>
      <point x="472" y="691"/>
      <point x="494" y="692" type="curve" smooth="yes"/>
      <point x="538" y="695"/>
      <point x="605" y="696"/>
      <point x="662" y="697" type="curve" smooth="yes"/>
      <point x="746" y="699"/>
      <point x="811" y="697"/>
      <point x="811" y="695" type="curve" smooth="yes"/>
      <point x="810" y="596" type="line"/>
      <point x="767" y="599"/>
      <point x="730" y="595"/>
      <point x="686" y="595" type="curve"/>
      <point x="664" y="596"/>
      <point x="642" y="596"/>
      <point x="620" y="596" type="curve" smooth="yes"/>
      <point x="598" y="596"/>
      <point x="600" y="595"/>
      <point x="523" y="592" type="curve" smooth="yes"/>
      <point x="520" y="592" type="line"/>
      <point x="519" y="591" type="line"/>
      <point x="520" y="572"/>
      <point x="518" y="585"/>
      <point x="514" y="509" type="curve" smooth="yes"/>
      <point x="510" y="433"/>
      <point x="510" y="414"/>
      <point x="515" y="396" type="curve"/>
      <point x="516" y="395" type="line"/>
      <point x="591" y="394"/>
      <point x="587" y="394"/>
      <point x="608" y="394" type="curve" smooth="yes"/>
      <point x="629" y="394"/>
      <point x="649" y="394"/>
      <point x="670" y="393" type="curve"/>
      <point x="670" y="392" type="line"/>
      <point x="671" y="379"/>
      <point x="671" y="319"/>
      <point x="671" y="312" type="curve" smooth="yes"/>
      <point x="671" y="306" type="line"/>
      <point x="644" y="305"/>
      <point x="629" y="304"/>
      <point x="625" y="303" type="curve" smooth="yes"/>
      <point x="621" y="302"/>
      <point x="613" y="302"/>
      <point x="601" y="303" type="curve" smooth="yes"/>
      <point x="590" y="304"/>
      <point x="617" y="303"/>
      <point x="580" y="302" type="curve" smooth="yes"/>
      <point x="543" y="301"/>
      <point x="523" y="300"/>
      <point x="520" y="297" type="curve"/>
      <point x="513" y="258"/>
      <point x="519" y="264"/>
      <point x="514" y="105" type="curve"/>
      <point x="515" y="104" type="line"/>
      <point x="614" y="105"/>
      <point x="633" y="104"/>
      <point x="676" y="101" type="curve" smooth="yes"/>
      <point x="719" y="99"/>
      <point x="763" y="99"/>
      <point x="808" y="100" type="curve"/>
    </contour>
    <contour>
      <point x="365" y="471" type="line"/>
      <point x="365" y="472"/>
      <point x="363" y="497"/>
      <point x="362" y="516" type="curve"/>
      <point x="361" y="544"/>
      <point x="338" y="569"/>
      <point x="313" y="582" type="curve"/>
      <point x="302" y="585"/>
      <point x="284" y="589"/>
      <point x="257" y="591" type="curve" smooth="yes"/>
      <point x="229" y="595"/>
      <point x="198" y="588"/>
      <point x="159" y="570" type="curve"/>
      <point x="141" y="557"/>
      <point x="129" y="539"/>
      <point x="122" y="518" type="curve"/>
      <point x="119" y="497"/>
      <point x="115" y="476"/>
      <point x="112" y="454" type="curve" smooth="yes"/>
      <point x="109" y="432"/>
      <point x="108" y="387"/>
      <point x="109" y="319" type="curve"/>
      <point x="111" y="250"/>
      <point x="114" y="207"/>
      <point x="118" y="187" type="curve" smooth="yes"/>
      <point x="120" y="168"/>
      <point x="124" y="151"/>
      <point x="130" y="134" type="curve"/>
      <point x="136" y="124"/>
      <point x="145" y="113"/>
      <point x="163" y="102" type="curve" smooth="yes"/>
      <point x="179" y="93"/>
      <point x="205" y="89"/>
      <point x="240" y="93" type="curve" smooth="yes"/>
      <point x="277" y="95"/>
      <point x="300" y="100"/>
      <point x="312" y="106" type="curve" smooth="yes"/>
      <point x="323" y="115"/>
      <point x="333" y="123"/>
      <point x="341" y="131" type="curve"/>
      <point x="359" y="154"/>
      <point x="361" y="158"/>
      <point x="365" y="202" type="curve" smooth="yes"/>
      <point x="366" y="212"/>
      <point x="367" y="233"/>
      <point x="368" y="262" type="curve" smooth="yes"/>
      <point x="370" y="293"/>
      <point x="371" y="308"/>
      <point x="371" y="309" type="curve"/>
      <point x="371" y="418" type="line"/>
    </contour>
    <contour>
      <point x="672" y="306" type="curve"/>
      <point x="671" y="306" type="line"/>
      <point x="671" y="305"/>
      <point x="671" y="305"/>
    </contour>
  </outline>
</glyph>
<glyph name="zcaron" format="1">
  <advance width="456"/>
  <unicode hex="017E"/>
  <outline>
    <contour>
      <point x="434" y="497" type="curve"/>
      <point x="434" y="464"/>
      <point x="431" y="437"/>
      <point x="434" y="408" type="curve"/>
      <point x="381" y="337"/>
      <point x="290" y="262"/>
      <point x="149" y="94" type="curve"/>
      <point x="209" y="98"/>
      <point x="366" y="90"/>
      <point x="429" y="100" type="curve"/>
      <point x="429" y="70"/>
      <point x="431" y="38"/>
      <point x="431" y="7" type="curve"/>
      <point x="308" y="4"/>
      <point x="151" y="1"/>
      <point x="24" y="1" type="curve"/>
      <point x="26" y="47"/>
      <point x="21" y="60"/>
      <point x="22" y="88" type="curve"/>
      <point x="74" y="155"/>
      <point x="242" y="318"/>
      <point x="316" y="409" type="curve"/>
      <point x="273" y="407"/>
      <point x="118" y="410"/>
      <point x="28" y="398" type="curve"/>
      <point x="26" y="443"/>
      <point x="30" y="460"/>
      <point x="28" y="497" type="curve"/>
      <point x="136" y="497"/>
      <point x="234" y="498"/>
      <point x="306" y="498" type="curve"/>
      <point x="335" y="495"/>
      <point x="419" y="502"/>
    </contour>
    <contour>
      <point x="409" y="720" type="curve" smooth="yes"/>
      <point x="406" y="718"/>
      <point x="373" y="727"/>
      <point x="329" y="725" type="curve" smooth="yes"/>
      <point x="324" y="725"/>
      <point x="280" y="681"/>
      <point x="273" y="673" type="curve" smooth="yes"/>
      <point x="263" y="662"/>
      <point x="252" y="650"/>
      <point x="246" y="647" type="curve"/>
      <point x="239" y="649"/>
      <point x="188" y="716"/>
      <point x="168" y="723" type="curve"/>
      <point x="150" y="725"/>
      <point x="150" y="724"/>
      <point x="86" y="721" type="curve"/>
      <point x="139" y="653"/>
      <point x="186" y="615"/>
      <point x="247" y="559" type="curve"/>
      <point x="301" y="613"/>
      <point x="355" y="666"/>
    </contour>
  </outline>
</glyph>
<glyph name="emdash" format="1">
  <advance width="692"/>
  <unicode hex="2014"/>
  <outline>
    <contour>
      <point x="37" y="196" type="curve"/>
      <point x="37" y="220"/>
      <point x="41" y="306"/>
      <point x="41" y="319" type="curve"/>
      <point x="651" y="319" type="line"/>
      <point x="652" y="282"/>
      <point x="650" y="226"/>
      <point x="655" y="189" type="curve"/>
      <point x="654" y="189" type="line"/>
      <point x="650" y="189" type="line"/>
      <point x="607" y="189"/>
      <point x="55" y="196"/>
    </contour>
  </outline>
</glyph>
<glyph name="quoteleft" format="1">
  <advance width="207"/>
  <unicode hex="2018"/>
  <outline>
    <contour>
      <point x="102" y="461" type="line"/>
      <point x="92" y="461"/>
      <point x="39" y="454"/>
      <point x="33" y="460" type="curve"/>
      <point x="53" y="540"/>
      <point x="77" y="638"/>
      <point x="100" y="706" type="curve" smooth="yes"/>
      <point x="101" y="709"/>
      <point x="96" y="709"/>
      <point x="156" y="708" type="curve" smooth="yes"/>
      <point x="167" y="708"/>
      <point x="175" y="708"/>
      <point x="179" y="706" type="curve"/>
      <point x="158" y="627"/>
      <point x="140" y="548"/>
      <point x="117" y="474" type="curve"/>
      <point x="115" y="468"/>
      <point x="114" y="463"/>
      <point x="113" y="461" type="curve"/>
    </contour>
  </outline>
</glyph>
<glyph name="bullet" format="1">
  <advance width="289"/>
  <unicode hex="2022"/>
  <outline>
    <contour>
      <point x="92" y="224" type="curve"/>
      <point x="84" y="235"/>
      <point x="85" y="257"/>
      <point x="86" y="273" type="curve" smooth="yes"/>
      <point x="86" y="326"/>
      <point x="95" y="330"/>
      <point x="152" y="330" type="curve" smooth="yes"/>
      <point x="173" y="330"/>
      <point x="201" y="323"/>
      <point x="204" y="299" type="curve" smooth="yes"/>
      <point x="208" y="270"/>
      <point x="207" y="226"/>
      <point x="182" y="215" type="curve" smooth="yes"/>
      <point x="165" y="208"/>
      <point x="143" y="211"/>
      <point x="123" y="209" type="curve"/>
      <point x="122" y="209" type="line"/>
      <point x="111" y="207"/>
      <point x="99" y="214"/>
    </contour>
  </outline>
</glyph>
<glyph name="ellipsis" format="1">
  <advance width="520"/>
  <unicode hex="2026"/>
  <outline>
    <contour>
      <point x="57" y="1" type="line"/>
      <point x="54" y="1" type="line"/>
      <point x="49" y="31"/>
      <point x="53" y="98"/>
      <point x="53" y="117" type="curve"/>
      <point x="78" y="127"/>
      <point x="126" y="125"/>
      <point x="141" y="119" type="curve"/>
      <point x="141" y="117"/>
      <point x="135" y="21"/>
      <point x="135" y="2" type="curve"/>
      <point x="135" y="1" type="line"/>
      <point x="135" y="0" type="line"/>
      <point x="133" y="0" type="line"/>
    </contour>
    <contour>
      <point x="221" y="1" type="line"/>
      <point x="218" y="1" type="line"/>
      <point x="213" y="32"/>
      <point x="217" y="97"/>
      <point x="217" y="117" type="curve"/>
      <point x="242" y="127"/>
      <point x="290" y="125"/>
      <point x="305" y="119" type="curve"/>
      <point x="305" y="117"/>
      <point x="299" y="21"/>
      <point x="299" y="2" type="curve"/>
      <point x="299" y="1" type="line"/>
      <point x="299" y="0" type="line"/>
      <point x="297" y="0" type="line"/>
    </contour>
    <contour>
      <point x="387" y="1" type="line"/>
      <point x="384" y="1" type="line"/>
      <point x="379" y="31"/>
      <point x="383" y="98"/>
      <point x="383" y="117" type="curve"/>
      <point x="408" y="127"/>
      <point x="456" y="125"/>
      <point x="471" y="119" type="curve"/>
      <point x="471" y="117"/>
      <point x="465" y="21"/>
      <point x="465" y="2" type="curve"/>
      <point x="465" y="1" type="line"/>
      <point x="465" y="0" type="line"/>
      <point x="463" y="0" type="line"/>
    </contour>
  </outline>
</glyph>
<glyph name="guilsinglright" format="1">
  <advance width="362"/>
  <unicode hex="203A"/>
  <outline>
    <contour>
      <point x="37" y="75" type="curve"/>
      <point x="42" y="70"/>
      <point x="47" y="65"/>
      <point x="52" y="60" type="curve" smooth="yes"/>
      <point x="60" y="52" type="line" smooth="yes"/>
      <point x="65" y="47"/>
      <point x="71" y="41"/>
      <point x="93" y="22" type="curve"/>
      <point x="170" y="98"/>
      <point x="262" y="165"/>
      <point x="334" y="262" type="curve"/>
      <point x="270" y="345"/>
      <point x="163" y="447"/>
      <point x="100" y="508" type="curve"/>
      <point x="82" y="498"/>
      <point x="61" y="470"/>
      <point x="47" y="458" type="curve"/>
      <point x="153" y="342"/>
      <point x="186" y="313"/>
      <point x="230" y="259" type="curve"/>
      <point x="165" y="195"/>
      <point x="101" y="127"/>
    </contour>
  </outline>
</glyph>
